<svg width="909" height="512" viewBox="0 0 909 512" fill="none" xmlns="http://www.w3.org/2000/svg">
<path d="M6.33596 24.3459C6.33596 19.7552 6.5791 15.1176 6.5791 10.4869C6.5791 8.85539 5.49826 6.56174 7.41658 5.7322C8.27424 5.36132 9.8402 5.28838 10.7665 5.19189C12.4865 5.01272 14.1974 4.89471 15.9265 4.89471C18.3757 4.89471 20.7778 5.21703 23.2207 5.32696C28.0344 5.54358 32.8836 5.381 37.7011 5.381" stroke="black" stroke-width="5" stroke-linecap="round"/>
<path d="M5 497C5 498.661 5 500.321 5 501.982C5 503.607 5.45472 504.757 7.31528 504.906C8.68067 505.015 10.0933 504.913 11.4623 504.913C13.3419 504.913 15.1955 505.309 17.06 505.309C18.8709 505.309 20.7369 505.178 22.5404 505.338C24.2685 505.492 26.7674 505.338 28.5 505.338" stroke="black" stroke-width="5" stroke-linecap="round"/>
<path d="M35.4589 5.69242C85.1864 5.69242 134.846 4.62368 184.578 4.62368C207.04 4.62368 229.381 5.69242 251.85 5.69242C277.529 5.69242 303.161 5.15805 328.829 5.15805C352.438 5.15805 375.965 5.05926 399.484 3.13932C406.881 2.53556 414.504 3.02057 421.928 3.02057C432.497 3.02057 443.347 2.31325 453.872 3.28775C463.651 4.19327 473.682 3.64183 483.5 4.05962C491.666 4.40711 499.975 4.62368 508.14 4.62368C528.222 4.62368 548.188 4.51364 568.227 5.69242" stroke="black" stroke-width="5" stroke-linecap="round"/>
<path d="M567.158 6.2268C605.908 6.2268 644.699 6.76117 683.414 6.76117C692.853 6.76117 703.051 6.95196 712.5 7.29554C721.437 7.62053 729.346 7.7593 738.157 7.29554C752.676 6.53139 767.293 5.15806 781.857 5.15806C801.134 5.15806 820.411 5.15806 839.688 5.15806C846.456 5.15806 853.225 5.15806 859.994 5.15806C866.113 5.15806 872.268 6.2268 878.43 6.2268C883.061 6.2268 887.692 6.2268 892.323 6.2268C894.579 6.2268 900.487 3.56626 902.625 5.27681C904.968 7.1511 905.415 9.19413 905.415 12.5C905.415 14.903 906.067 17.6604 905.415 20C904.812 22.1654 905.415 27.2634 905.415 29.5" stroke="black" stroke-width="5" stroke-linecap="round"/>
<path d="M902.96 473.653C902.96 480.533 902.96 487.413 902.96 494.294C902.96 496.115 902.96 497.935 902.96 499.756C902.96 501.284 903.527 504.446 902.863 505.847C901.275 509.201 897.075 508.457 894.041 508.457C888.756 508.457 883.471 508.457 878.186 508.457C872.392 508.457 866.649 508.892 860.856 508.892C848.597 508.892 836.765 507.143 824.65 505.412" stroke="black" stroke-width="5" stroke-linecap="round"/>
<path d="M903.992 480.367C903.992 474.919 902.763 469.531 902.763 464.072C902.763 459.21 902.763 454.348 902.763 449.485C902.763 440.676 905.957 431.596 903.992 423C902.158 414.973 903.992 406.736 903.992 398.5C903.992 390.829 902.148 382.057 902.148 374.332C902.148 364.573 902.763 354.866 902.763 345.125C902.763 339.944 902.763 334.763 902.763 329.582C902.763 324.664 903.992 319.841 903.992 314.927C903.992 299.153 905.493 282.545 902.626 267.137C901.971 263.619 903.945 260.312 902.763 257C901.239 252.735 903.451 246.473 902.762 242C902.029 237.23 902.763 233.33 902.763 228.5C902.763 223.191 901.849 215.245 902.626 210C906.33 185 901.533 159.719 901.533 134.457C901.533 127.996 902.763 121.784 902.763 115.396C902.763 102.145 903.992 89.0376 903.992 75.7695C903.992 64.9975 903.992 54.2256 903.992 43.4536C903.992 40.9171 903.852 38.334 903.992 35.8017C904.09 34.0519 906.452 33.2086 906.452 31.4974" stroke="black" stroke-width="5" stroke-linecap="round"/>
<path d="M6.15903 499C6.15903 492.91 6.15903 494.09 6.15903 488C6.15903 482.077 4.43306 478.109 6.15903 472.5C7.11341 469.398 5.65357 458.785 6.15903 455.5C6.57306 452.809 6.15903 449.728 6.15903 447C6.15903 441.577 6.15903 430.824 6.15903 425.633C6.15903 404.672 3.48544 384.629 3.48544 363.5C3.48544 346.188 3.48544 328.812 3.48544 311.5C3.48544 286.573 5.31734 261.894 5.31734 237C5.31734 224.102 3.18597 210.788 5.31734 198C7.67935 183.828 3.48544 166.321 3.48544 152C3.48544 135.308 6.3461 119.174 6.15903 102.525C6.0122 89.4573 6.44695 76.4514 5.31734 63.4609C4.72876 56.6922 5.31734 50.0806 5.31734 43.5C5.31734 40.9276 3.87819 26.1404 6.15903 25" stroke="black" stroke-width="5" stroke-linecap="round"/>
<path d="M27.0397 505.614C37.4364 505.614 47.8111 505.863 58.2066 505.863C63.5023 505.863 68.832 505.674 74.1225 505.877C79.6742 506.091 85.1613 507.11 90.731 507.11C93.6046 507.11 96.4883 507.178 99.3608 507.096C103.122 506.989 106.863 506.389 110.622 506.362C114.048 506.337 117.475 506.362 120.901 506.362C124.234 506.362 127.492 507.085 130.819 507.11C142.275 507.195 153.718 507.359 165.171 507.359C172.541 507.359 179.932 508.294 187.307 507.802C190.473 507.591 193.542 507.359 196.726 507.359C199.061 507.359 201.499 507.557 203.818 507.234C205.705 506.972 207.666 507.11 209.567 507.11C213.755 507.11 217.943 507.11 222.131 507.11C230.267 507.11 238.323 506.362 246.455 506.362C252.111 506.362 257.767 506.362 263.423 506.362C269.44 506.362 275.202 504.866 281.237 504.866C284.503 504.866 287.843 504.654 291.086 505.06C295.035 505.553 298.823 505.863 302.804 505.863" stroke="black" stroke-width="5" stroke-linecap="round"/>
<path d="M301.358 505.394C305.947 504.56 310.764 505.073 315.413 504.729C318.867 504.473 322.389 504.646 325.851 504.646C334.126 504.646 342.401 504.646 350.675 504.646C373.009 504.646 395.238 506.891 417.582 506.891C424.195 506.891 430.827 507.042 437.438 506.87C440.602 506.788 443.636 506.062 446.773 505.789C450.572 505.459 454.357 505.394 458.167 505.394C473.414 505.394 488.661 505.394 503.908 505.394C522.036 505.394 540.164 506.188 558.277 506.891C576.254 507.589 594.2 507.64 612.19 507.64C625.569 507.64 638.932 507.265 652.317 507.265C656.711 507.265 661.105 507.265 665.499 507.265C669.252 507.265 672.819 507.753 676.539 507.993C680.558 508.252 684.915 508.296 688.91 507.806C695.015 507.056 700.789 506.557 706.957 506.517C717.431 506.448 727.649 506.067 738.102 506.808C747.771 507.493 757.645 506.831 767.314 506.538C775.121 506.301 783.624 507.576 791.349 506.33C797.269 505.375 802.972 506.891 808.835 506.891" stroke="black" stroke-width="5" stroke-linecap="round"/>
<path d="M808.086 506.891C811.705 506.891 815.727 507.434 819.23 506.434C821.542 505.773 828.076 506.434 830.5 506.434" stroke="black" stroke-width="5" stroke-linecap="round"/>
</svg>
