<svg width="64" height="68" viewBox="0 0 64 68" fill="none" xmlns="http://www.w3.org/2000/svg">
<g clip-path="url(#clip0_64_57)">
<rect x="45" y="51" width="11" height="10" rx="5" fill="white"/>
<rect x="16" y="51" width="11" height="10" rx="5" fill="white"/>
<path fill-rule="evenodd" clip-rule="evenodd" d="M7.20641 1.36884C7.30257 1.36945 7.39291 1.37003 7.47685 1.37003C8.13222 1.37003 9.01051 1.45375 9.85459 1.64239C10.2831 1.73815 10.7914 1.88034 11.2982 2.09778C11.758 2.29506 12.4884 2.6674 13.1078 3.35557C13.9398 4.28001 14.1892 5.28168 14.2914 5.72978C14.313 5.82468 14.3332 5.92105 14.3459 5.98165C14.3478 5.99063 14.3495 5.99883 14.351 6.00611C14.356 6.02957 14.36 6.04853 14.3633 6.0641C14.8651 7.18393 15.2818 8.31955 15.6467 9.34063C15.6497 9.34626 15.6533 9.35325 15.6578 9.36167C15.6911 9.42411 15.7081 9.45379 15.7356 9.50189C15.7619 9.54778 15.7977 9.61043 15.8665 9.73428C16.0588 10.0807 16.4608 10.8167 16.6173 11.7868C16.6412 11.9349 16.6659 12.0885 16.6908 12.2472H16.6951H16.7012H16.7073H16.7134H16.7195H16.7256H16.7316H16.7377H16.7438H16.7499H16.756H16.7621H16.7682H16.7743H16.7803H16.7864H16.7925H16.7986H16.8047H16.8108H16.8169H16.823H16.8291H16.8351H16.8412H16.8473H16.8534H16.8595H16.8656H16.8717H16.8778H16.8838H16.8899H16.896H16.9021H16.9082H16.9143H16.9204H16.9265H16.9325H16.9386H16.9447H16.9508H16.9569H16.963H16.9691H16.9752H16.9812H16.9873H16.9934H16.9995H17.0056H17.0117H17.0178H17.0239H17.0299H17.036H17.0421H17.0482H17.0543H17.0604H17.0665H17.0726H17.0786H17.0847H17.0908H17.0969H17.103H17.1091H17.1152H17.1213H17.1273H17.1334H17.1395H17.1456H17.1517H17.1578H17.1639H17.17H17.176H17.1821H17.1882H17.1943H17.2004H17.2065H17.2126H17.2187H17.2247H17.2308H17.2369H17.243H17.2491H17.2552H17.2613H17.2674H17.2734H17.2795H17.2856H17.2917H17.2978H17.3039H17.31H17.3161H17.3221H17.3282H17.3343H17.3404H17.3465H17.3526H17.3587H17.3648H17.3708H17.3769H17.383H17.3891H17.3952H17.4013H17.4074H17.4135H17.4195H17.4256H17.4317H17.4378H17.4439H17.45H17.4561H17.4622H17.4683H17.4743H17.4804H17.4865H17.4926H17.4987H17.5048H17.5109H17.517H17.523H17.5291H17.5352H17.5413H17.5474H17.5535H17.5596H17.5657H17.5717H17.5778H17.5839H17.59H17.5961H17.6022H17.6083H17.6144H17.6204H17.6265H17.6326H17.6387H17.6448H17.6509H17.657H17.6631H17.6691H17.6752H17.6813H17.6874H17.6935H17.6996H17.7057H17.7118H17.7178H17.7239H17.73H17.7361H17.7422H17.7483H17.7544H17.7605H17.7665H17.7726H17.7787H17.7848H17.7909H17.797H17.8031H17.8092H17.8152H17.8213H17.8274H17.8335H17.8396H17.8457H17.8518H17.8579H17.8639H17.87H17.8761H17.8822H17.8883H17.8944H17.9005H17.9066H17.9126H17.9187H17.9248H17.9309H17.937H17.9431H17.9492H17.9553H17.9613H17.9674H17.9735H17.9796H17.9857H17.9918H17.9979H18.004H18.01H18.0161H18.0222H18.0283H18.0344H18.0405H18.0466H18.0527H18.0588H18.0648H18.0709H18.077H18.0831H18.0892H18.0953H18.1014H18.1075H18.1135H18.1196H18.1257H18.1318H18.1379H18.144H18.1501H18.1562H18.1622H18.1683H18.1744H18.1805H18.1866H18.1927H18.1988H18.2049H18.2109H18.217H18.2231H18.2292H18.2353H18.2414H18.2475H18.2536H18.2596H18.2657H18.2718H18.2779H18.284H18.2901H18.2962H18.3023H18.3083H18.3144H18.3205H18.3266H18.3327H18.3388H18.3449H18.351H18.357H18.3631H18.3692H18.3753H18.3814H18.3875H18.3936H18.3997H18.4057H18.4118H18.4179H18.424H18.4301H18.4362H18.4423H18.4484H18.4544H18.4605H18.4666H18.4727H18.4788H18.4849H18.491H18.4971H18.5031H18.5092H18.5153H18.5214H18.5275H18.5336H18.5397H18.5458H18.5518H18.5579H18.564H18.5701H18.5762H18.5823H18.5884H18.5945H18.6005H18.6066H18.6127H18.6188H18.6249H18.631H18.6371H18.6432H18.6493H18.6553H18.6614H18.6675H18.6736H18.6797H18.6858H18.6919H18.698H18.704H18.7101H18.7162H18.7223H18.7284H18.7345H18.7406H18.7467H18.7527H18.7588H18.7649H18.771H18.7771H18.7832H18.7893H18.7954H18.8014H18.8075H18.8136H18.8197H18.8258H18.8319H18.838H18.8441H18.8501H18.8562H18.8623H18.8684H18.8745H18.8806H18.8867H18.8928H18.8988H18.9049H18.911H18.9171H18.9232H18.9293H18.9354H18.9415H18.9475H18.9536H18.9597H18.9658H18.9719H18.978H18.9841H18.9902H18.9962H19.0023H19.0084H19.0145H19.0206H19.0267H19.0328H19.0389H19.0449H19.051H19.0571H19.0632H19.0693H19.0754H19.0815H19.0876H19.0936H19.0997H19.1058H19.1119H19.118H19.1241H19.1302H19.1363H19.1423H19.1484H19.1545H19.1606H19.1667H19.1728H19.1789H19.185H19.191H19.1971H19.2032H19.2093H19.2154H19.2215H19.2276H19.2337H19.2397H19.2458H19.2519H19.258H19.2641H19.2702H19.2763H19.2824H19.2885H19.2945H19.3006H19.3067H19.3128H19.3189H19.325H19.3311H19.3372H19.3432H19.3493H19.3554H19.3615H19.3676H19.3737H19.3798H19.3859H19.3919H19.398H19.4041H19.4102H19.4163H19.4224H19.4285H19.4346H19.4406H19.4467H19.4528H19.4589H19.465H19.4711H19.4772H19.4833H19.4893H19.4954H19.5015H19.5076H19.5137H19.5198H19.5259H19.532H19.538H19.5441H19.5502H19.5563H19.5624H19.5685H19.5746H19.5807H19.5867H19.5928H19.5989H19.605H19.6111H19.6172H19.6233H19.6294H19.6354H19.6415H19.6476H19.6537H19.6598H19.6659H19.672H19.6781H19.6841H19.6902H19.6963H19.7024H19.7085H19.7146H19.7207H19.7268H19.7328H19.7389H19.745H19.7511H19.7572H19.7633H19.7694C20.5458 12.2472 21.3321 12.215 22.2034 12.1787L22.2346 12.1774C23.0734 12.1425 23.9943 12.1041 24.9297 12.1041H24.954H24.9783H25.0026H25.027H25.0513H25.0756H25.0999H25.1242H25.1486H25.1729H25.1972H25.2215H25.2458H25.2702H25.2945H25.3188H25.3431H25.3674H25.3918H25.4161H25.4404H25.4647H25.489H25.5134H25.5377H25.562H25.5863H25.6106H25.635H25.6593H25.6836H25.7079H25.7322H25.7565H25.7809H25.8052H25.8295H25.8538H25.8781H25.9025H25.9268H25.9511H25.9754H25.9997H26.0241H26.0484H26.0727H26.097H26.1213H26.1457H26.17H26.1943H26.2186H26.2429H26.2673H26.2916H26.3159H26.3402H26.3645H26.3889H26.4132H26.4375H26.4618H26.4861H26.5105H26.5348H26.5591H26.5834H26.6077H26.632H26.6564H26.6807H26.705H26.7293H26.7536H26.778H26.8023H26.8266H26.8509H26.8752H26.8996H26.9239H26.9482H26.9725H26.9968H27.0212H27.0455H27.0698H27.0941H27.1184H27.1428H27.1671H27.1914H27.2157H27.24H27.2644H27.2887H27.313H27.3373H27.3616H27.386H27.4103H27.4346H27.4589H27.4832H27.5075H27.5319H27.5562H27.5805H27.6048H27.6291H27.6535H27.6778H27.7021H27.7264H27.7507H27.7751H27.7994H27.8237H27.848H27.8723H27.8967H27.921H27.9453H27.9696H27.9939H28.0183H28.0426H28.0669H28.0912H28.1155H28.1399H28.1642H28.1885H28.2128H28.2371H28.2614H28.2858H28.3101H28.3344H28.3587H28.383H28.4074H28.4317H28.456H28.4803H28.5046H28.529H28.5533H28.5776H28.6019H28.6262H28.6506H28.6749H28.6992H28.7235H28.7478H28.7722H28.7965H28.8208H28.8451H28.8694H28.8938H28.9181H28.9424H28.9667H28.991H29.0154H29.0397H29.064H29.0883H29.1126H29.1369H29.1613H29.1856H29.2099H29.2342H29.2585H29.2829H29.3072H29.3315H29.3558H29.3801H29.4045H29.4288H29.4531H29.4774H29.5017H29.5261H29.5504H29.5747H29.599H29.6233H29.6477H29.672H29.6963H29.7206H29.7449H29.7693H29.7936H29.8179H29.8422H29.8665H29.8909H29.9152H29.9395H29.9638H29.9881H30.0124H30.0368H30.0611H30.0854H30.1097H30.134H30.1584H30.1827H30.207H30.2313H30.2556H30.28H30.3043H30.3286H30.3529H30.3772H30.4016H30.4259H30.4502H30.4745H30.4988H30.5232H30.5475H30.5718H30.5961H30.6204H30.6448H30.6691H30.6934H30.7177H30.742H30.7663H30.7907H30.815H30.8393H30.8636H30.8879H30.9123H30.9366H30.9609H30.9852H31.0095H31.0339H31.0582H31.0825H31.1068H31.1311H31.1555H31.1798H31.2041H31.2284H31.2527H31.2771H31.3014H31.3257H31.35H31.3743H31.3987H31.423H31.4473H31.4716H31.4959H31.5203H31.5446H31.5689H31.5932H31.6175H31.6418H31.6662H31.6905H31.7148H31.7391H31.7634H31.7878H31.8121H31.8364H31.8607H31.885H31.9094H31.9337H31.958H31.9823H32.0066H32.031H32.0553H32.0796H32.1039H32.1282H32.1526H32.1769H32.2012H32.2255H32.2498H32.2742H32.2985H32.3228H32.3471H32.3714H32.3958H32.4201H32.4444H32.4687H32.493H32.5173H32.5417H32.566H32.5903H32.6146H32.6389H32.6633H32.6876H32.7119H32.7362H32.7605H32.7849H32.8092H32.8335H32.8578H32.8821H32.9065H32.9308H32.9551H32.9794H33.0037H33.0281H33.0524H33.0767H33.101H33.1253H33.1497H33.174H33.1983H33.2226H33.2469H33.2713H33.2956H33.3199H33.3442H33.3685H33.3928H33.4172H33.4415H33.4658H33.4901H33.5144H33.5388H33.5631H33.5874H33.6117H33.636H33.6604H33.6847H33.709H33.7333H33.7576H33.782H33.8063H33.8306H33.8549H33.8792H33.9036H33.9279H33.9522H33.9765H34.0008H34.0252H34.0495H34.0738H34.0981H34.1224H34.1468H34.1711H34.1954H34.2197H34.244H34.2683H34.2927H34.317H34.3413H34.3656H34.3899H34.4143H34.4386H34.4629H34.4872H34.5115H34.5359H34.5602H34.5845H34.6088H34.6331H34.6575H34.6818H34.7061H34.7304H34.7547H34.7791H34.8034H34.8277H34.852H34.8763H34.9007H34.925H34.9493H34.9736H34.9979H35.0223H35.0466H35.0709H35.0952H35.1195H35.1438H35.1682H35.1925H35.2168H35.2411H35.2654H35.2898H35.3141H35.3384H35.3627H35.387H35.4114H35.4357H35.46H35.4843H35.5086H35.533H35.5573H35.5816H35.6059H35.6302H35.6546H35.6789H35.7032H35.7275H35.7518H35.7762H35.8005H35.8248H35.8491H35.8734H35.8978H35.9221H35.9464H35.9707H35.995H36.0193H36.0437H36.068H36.0923H36.1166H36.1409H36.1653H36.1896H36.2139H36.2382H36.2625H36.2869H36.3112H36.3355H36.3598H36.3841H36.4085H36.4328H36.4571H36.4814H36.5057H36.5301H36.5544H36.5787H36.603H36.6273H36.6517H36.676H36.7003H36.7246H36.7489H36.7733H36.7976H36.8219H36.8462H36.8705H36.8948H36.9192H36.9435H36.9678H36.9921H37.0164H37.0408H37.0651H37.0894H37.1137H37.138H37.1624H37.1867H37.211H37.2353H37.2596H37.284H37.3083H37.3326H37.3569H37.3812C38.7654 12.1041 40.1398 12.141 41.4598 12.1764L41.4802 12.1769C42.822 12.2129 44.1085 12.2472 45.3881 12.2472H45.4072C48.1795 12.2472 51.3075 12.2472 54.3238 12.5851C54.3222 12.5849 54.3213 12.5847 54.3214 12.5846C54.3214 12.5832 54.4184 12.5863 54.7226 12.5772C54.7585 12.5762 54.7977 12.5749 54.8396 12.5736C55.1325 12.5644 55.5596 12.5509 55.9795 12.5609C56.4509 12.5721 57.1262 12.6139 57.8258 12.8022C58.4334 12.9656 59.3492 13.317 60.1185 14.1262C60.1279 14.1317 60.1374 14.1373 60.1478 14.1433C60.1766 14.1602 60.2121 14.181 60.2697 14.2151C60.4363 14.3137 60.7869 14.5214 61.1377 14.8062C61.4997 15.1 62.0077 15.5892 62.3775 16.3288C62.6788 16.9314 62.7623 17.49 62.7935 17.7862C62.8283 18.1163 62.8246 18.4085 62.8174 18.6013C62.8101 18.7994 62.795 18.9817 62.7865 19.084L62.7864 19.0849C62.7781 19.1851 62.7761 19.2131 62.7759 19.2131C62.7758 19.2131 62.7761 19.2075 62.7764 19.2004C62.732 20.398 62.2125 21.4286 61.962 21.8981C61.6459 22.4907 61.2882 23.0193 61.0816 23.3198C60.7487 23.8039 60.6229 24.1516 60.2626 25.1467C60.2231 25.256 60.1808 25.373 60.135 25.4988C60.0004 25.8689 59.9164 26.6878 59.9164 27.7694C59.9164 29.5413 59.4855 31.4452 59.0979 32.802C59.0108 33.1067 58.9291 33.3844 58.8532 33.6423C58.6017 34.4967 58.4142 35.1336 58.3093 35.8155C58.1523 36.8357 57.9678 37.9746 57.5805 39.2229C57.3519 39.9593 56.9878 40.8839 56.7121 41.5837C56.5879 41.8992 56.4816 42.169 56.4138 42.3553C56.0152 43.4517 55.413 44.2426 54.9533 44.7812C54.6367 45.1522 54.482 45.3159 54.3695 45.4351C54.2569 45.5543 54.1865 45.6289 54.0382 45.8217C53.1026 47.0379 51.6685 47.6477 50.9379 47.9212C50.0516 48.2531 49.0272 48.5053 48.1592 48.5696C46.6721 48.6797 45.0092 48.6433 43.5907 48.6122C42.9971 48.5992 42.4463 48.5871 41.9691 48.5871C39.9214 48.5871 37.8668 48.6223 35.7756 48.6581L35.7647 48.6583C33.6871 48.694 31.5733 48.7302 29.4539 48.7302C28.1537 48.7302 26.7225 48.5282 25.64 48.3754C25.2718 48.3234 24.944 48.2771 24.6754 48.2464C23.9692 48.1657 23.0522 47.9839 22.179 47.7265C21.4321 47.5064 20.1793 47.0822 19.2148 46.2932C18.1651 45.4343 17.5118 44.3676 17.0918 43.5151C16.6741 42.6672 16.3797 41.8002 16.1825 41.2195L16.177 41.2034C16.0854 40.9338 15.986 40.6485 15.8822 40.3511C15.563 39.4358 15.2038 38.4056 14.9121 37.364C14.6901 36.5711 14.5374 35.7098 14.4237 35.0683C14.3961 34.9123 14.3708 34.7694 14.3473 34.6436C14.205 33.8811 14.0833 33.4153 13.9233 33.0552C13.379 31.8304 13.1973 30.5138 13.0993 29.5958C13.0417 29.0554 13.0109 28.6687 12.9851 28.3442C12.9536 27.9491 12.9295 27.6463 12.8732 27.2709C12.6981 26.1033 12.3742 25.0994 11.9731 23.856C11.7544 23.178 11.5127 22.4288 11.2596 21.5431C11.1193 21.0518 11.001 20.5427 10.9071 20.1388C10.887 20.0525 10.8681 19.9709 10.8503 19.8954C10.7374 19.4167 10.6475 19.0726 10.5422 18.772C10.1895 17.7643 9.97999 16.3715 9.97999 15.3894C9.97999 14.7248 9.88949 14.0499 9.74238 13.1247C9.72293 13.0898 9.70493 13.058 9.6808 13.0154C9.66897 12.9946 9.65566 12.9711 9.63999 12.9434C9.59659 12.8666 9.53952 12.765 9.48017 12.6536C9.36197 12.4318 9.20576 12.1183 9.07073 11.7403C8.69272 10.6818 8.33654 9.72044 7.93221 8.83091C7.86164 8.67566 7.8028 8.52592 7.75352 8.38584C7.61936 8.37337 7.52204 8.37003 7.47685 8.37003H7.47339C6.27092 8.37003 5.87588 8.37003 5.45668 8.4898C4.90447 8.64757 4.40646 8.68297 4.10833 8.6958C3.94969 8.70263 3.80288 8.70429 3.69673 8.70512C3.65541 8.70544 3.62146 8.70565 3.59189 8.70583C3.58911 8.70585 3.58637 8.70587 3.58367 8.70588C2.08597 9.28906 0.332633 8.77638 -0.595642 7.38396C-1.66788 5.77561 -1.23327 3.60257 0.375083 2.53034C1.03171 2.09259 1.68724 1.90325 2.17339 1.81317C2.64476 1.72582 3.06964 1.7129 3.31411 1.70849C3.50095 1.70512 3.58629 1.70525 3.64487 1.70534C3.67831 1.70539 3.70303 1.70543 3.73292 1.70479C5.0779 1.35529 6.36495 1.36349 7.20641 1.36884ZM3.83102 1.70079C3.83117 1.70087 3.82685 1.70128 3.81759 1.70178C3.82623 1.70096 3.83086 1.70071 3.83102 1.70079ZM7.46059 7.26251C7.46071 7.2622 7.4626 7.26875 7.46591 7.2831C7.46213 7.26999 7.46048 7.26282 7.46059 7.26251ZM9.80147 13.2368C9.80145 13.2368 9.80109 13.2361 9.80042 13.2346C9.80114 13.2361 9.80148 13.2369 9.80147 13.2368ZM17.8907 19.2472H17.8944H17.9005H17.9066H17.9126H17.9187H17.9248H17.9309H17.937H17.9431H17.9492H17.9553H17.9613H17.9674H17.9735H17.9796H17.9857H17.9918H17.9979H18.004H18.01H18.0161H18.0222H18.0283H18.0344H18.0405H18.0466H18.0527H18.0588H18.0648H18.0709H18.077H18.0831H18.0892H18.0953H18.1014H18.1075H18.1135H18.1196H18.1257H18.1318H18.1379H18.144H18.1501H18.1562H18.1622H18.1683H18.1744H18.1805H18.1866H18.1927H18.1988H18.2049H18.2109H18.217H18.2231H18.2292H18.2353H18.2414H18.2475H18.2536H18.2596H18.2657H18.2718H18.2779H18.284H18.2901H18.2962H18.3023H18.3083H18.3144H18.3205H18.3266H18.3327H18.3388H18.3449H18.351H18.357H18.3631H18.3692H18.3753H18.3814H18.3875H18.3936H18.3997H18.4057H18.4118H18.4179H18.424H18.4301H18.4362H18.4423H18.4484H18.4544H18.4605H18.4666H18.4727H18.4788H18.4849H18.491H18.4971H18.5031H18.5092H18.5153H18.5214H18.5275H18.5336H18.5397H18.5458H18.5518H18.5579H18.564H18.5701H18.5762H18.5823H18.5884H18.5945H18.6005H18.6066H18.6127H18.6188H18.6249H18.631H18.6371H18.6432H18.6493H18.6553H18.6614H18.6675H18.6736H18.6797H18.6858H18.6919H18.698H18.704H18.7101H18.7162H18.7223H18.7284H18.7345H18.7406H18.7467H18.7527H18.7588H18.7649H18.771H18.7771H18.7832H18.7893H18.7954H18.8014H18.8075H18.8136H18.8197H18.8258H18.8319H18.838H18.8441H18.8501H18.8562H18.8623H18.8684H18.8745H18.8806H18.8867H18.8928H18.8988H18.9049H18.911H18.9171H18.9232H18.9293H18.9354H18.9415H18.9475H18.9536H18.9597H18.9658H18.9719H18.978H18.9841H18.9902H18.9962H19.0023H19.0084H19.0145H19.0206H19.0267H19.0328H19.0389H19.0449H19.051H19.0571H19.0632H19.0693H19.0754H19.0815H19.0876H19.0936H19.0997H19.1058H19.1119H19.118H19.1241H19.1302H19.1363H19.1423H19.1484H19.1545H19.1606H19.1667H19.1728H19.1789H19.185H19.191H19.1971H19.2032H19.2093H19.2154H19.2215H19.2276H19.2337H19.2397H19.2458H19.2519H19.258H19.2641H19.2702H19.2763H19.2824H19.2885H19.2945H19.3006H19.3067H19.3128H19.3189H19.325H19.3311H19.3372H19.3432H19.3493H19.3554H19.3615H19.3676H19.3737H19.3798H19.3859H19.3919H19.398H19.4041H19.4102H19.4163H19.4224H19.4285H19.4346H19.4406H19.4467H19.4528H19.4589H19.465H19.4711H19.4772H19.4833H19.4893H19.4954H19.5015H19.5076H19.5137H19.5198H19.5259H19.532H19.538H19.5441H19.5502H19.5563H19.5624H19.5685H19.5746H19.5807H19.5867H19.5928H19.5989H19.605H19.6111H19.6172H19.6233H19.6294H19.6354H19.6415H19.6476H19.6537H19.6598H19.6659H19.672H19.6781H19.6841H19.6902H19.6963H19.7024H19.7085H19.7146H19.7207H19.7268H19.7328H19.7389H19.745H19.7511H19.7572H19.7633H19.7694C20.7037 19.2472 21.6239 19.2089 22.4624 19.174L22.4946 19.1727C23.3658 19.1364 24.1525 19.1041 24.9297 19.1041H24.954H24.9783H25.0026H25.027H25.0513H25.0756H25.0999H25.1242H25.1486H25.1729H25.1972H25.2215H25.2458H25.2702H25.2945H25.3188H25.3431H25.3674H25.3918H25.4161H25.4404H25.4647H25.489H25.5134H25.5377H25.562H25.5863H25.6106H25.635H25.6593H25.6836H25.7079H25.7322H25.7565H25.7809H25.8052H25.8295H25.8538H25.8781H25.9025H25.9268H25.9511H25.9754H25.9997H26.0241H26.0484H26.0727H26.097H26.1213H26.1457H26.17H26.1943H26.2186H26.2429H26.2673H26.2916H26.3159H26.3402H26.3645H26.3889H26.4132H26.4375H26.4618H26.4861H26.5105H26.5348H26.5591H26.5834H26.6077H26.632H26.6564H26.6807H26.705H26.7293H26.7536H26.778H26.8023H26.8266H26.8509H26.8752H26.8996H26.9239H26.9482H26.9725H26.9968H27.0212H27.0455H27.0698H27.0941H27.1184H27.1428H27.1671H27.1914H27.2157H27.24H27.2644H27.2887H27.313H27.3373H27.3616H27.386H27.4103H27.4346H27.4589H27.4832H27.5075H27.5319H27.5562H27.5805H27.6048H27.6291H27.6535H27.6778H27.7021H27.7264H27.7507H27.7751H27.7994H27.8237H27.848H27.8723H27.8967H27.921H27.9453H27.9696H27.9939H28.0183H28.0426H28.0669H28.0912H28.1155H28.1399H28.1642H28.1885H28.2128H28.2371H28.2614H28.2858H28.3101H28.3344H28.3587H28.383H28.4074H28.4317H28.456H28.4803H28.5046H28.529H28.5533H28.5776H28.6019H28.6262H28.6506H28.6749H28.6992H28.7235H28.7478H28.7722H28.7965H28.8208H28.8451H28.8694H28.8938H28.9181H28.9424H28.9667H28.991H29.0154H29.0397H29.064H29.0883H29.1126H29.1369H29.1613H29.1856H29.2099H29.2342H29.2585H29.2829H29.3072H29.3315H29.3558H29.3801H29.4045H29.4288H29.4531H29.4774H29.5017H29.5261H29.5504H29.5747H29.599H29.6233H29.6477H29.672H29.6963H29.7206H29.7449H29.7693H29.7936H29.8179H29.8422H29.8665H29.8909H29.9152H29.9395H29.9638H29.9881H30.0124H30.0368H30.0611H30.0854H30.1097H30.134H30.1584H30.1827H30.207H30.2313H30.2556H30.28H30.3043H30.3286H30.3529H30.3772H30.4016H30.4259H30.4502H30.4745H30.4988H30.5232H30.5475H30.5718H30.5961H30.6204H30.6448H30.6691H30.6934H30.7177H30.742H30.7663H30.7907H30.815H30.8393H30.8636H30.8879H30.9123H30.9366H30.9609H30.9852H31.0095H31.0339H31.0582H31.0825H31.1068H31.1311H31.1555H31.1798H31.2041H31.2284H31.2527H31.2771H31.3014H31.3257H31.35H31.3743H31.3987H31.423H31.4473H31.4716H31.4959H31.5203H31.5446H31.5689H31.5932H31.6175H31.6418H31.6662H31.6905H31.7148H31.7391H31.7634H31.7878H31.8121H31.8364H31.8607H31.885H31.9094H31.9337H31.958H31.9823H32.0066H32.031H32.0553H32.0796H32.1039H32.1282H32.1526H32.1769H32.2012H32.2255H32.2498H32.2742H32.2985H32.3228H32.3471H32.3714H32.3958H32.4201H32.4444H32.4687H32.493H32.5173H32.5417H32.566H32.5903H32.6146H32.6389H32.6633H32.6876H32.7119H32.7362H32.7605H32.7849H32.8092H32.8335H32.8578H32.8821H32.9065H32.9308H32.9551H32.9794H33.0037H33.0281H33.0524H33.0767H33.101H33.1253H33.1497H33.174H33.1983H33.2226H33.2469H33.2713H33.2956H33.3199H33.3442H33.3685H33.3928H33.4172H33.4415H33.4658H33.4901H33.5144H33.5388H33.5631H33.5874H33.6117H33.636H33.6604H33.6847H33.709H33.7333H33.7576H33.782H33.8063H33.8306H33.8549H33.8792H33.9036H33.9279H33.9522H33.9765H34.0008H34.0252H34.0495H34.0738H34.0981H34.1224H34.1468H34.1711H34.1954H34.2197H34.244H34.2683H34.2927H34.317H34.3413H34.3656H34.3899H34.4143H34.4386H34.4629H34.4872H34.5115H34.5359H34.5602H34.5845H34.6088H34.6331H34.6575H34.6818H34.7061H34.7304H34.7547H34.7791H34.8034H34.8277H34.852H34.8763H34.9007H34.925H34.9493H34.9736H34.9979H35.0223H35.0466H35.0709H35.0952H35.1195H35.1438H35.1682H35.1925H35.2168H35.2411H35.2654H35.2898H35.3141H35.3384H35.3627H35.387H35.4114H35.4357H35.46H35.4843H35.5086H35.533H35.5573H35.5816H35.6059H35.6302H35.6546H35.6789H35.7032H35.7275H35.7518H35.7762H35.8005H35.8248H35.8491H35.8734H35.8978H35.9221H35.9464H35.9707H35.995H36.0193H36.0437H36.068H36.0923H36.1166H36.1409H36.1653H36.1896H36.2139H36.2382H36.2625H36.2869H36.3112H36.3355H36.3598H36.3841H36.4085H36.4328H36.4571H36.4814H36.5057H36.5301H36.5544H36.5787H36.603H36.6273H36.6517H36.676H36.7003H36.7246H36.7489H36.7733H36.7976H36.8219H36.8462H36.8705H36.8948H36.9192H36.9435H36.9678H36.9921H37.0164H37.0408H37.0651H37.0894H37.1137H37.138H37.1624H37.1867H37.211H37.2353H37.2596H37.284H37.3083H37.3326H37.3569H37.3812C38.6631 19.1041 39.9508 19.1384 41.2925 19.1744L41.3164 19.1751C42.6352 19.2104 44.0073 19.2472 45.3881 19.2472C48.2384 19.2472 50.9867 19.2538 53.5602 19.5433C53.8552 19.5765 54.1308 19.5832 54.3349 19.584C54.5459 19.5849 54.7572 19.5793 54.9299 19.5742C54.979 19.5727 55.026 19.5713 55.0709 19.5699C55.1052 19.5689 55.1384 19.5679 55.1706 19.5669C54.3913 20.7598 53.9925 21.882 53.6806 22.7597C53.6379 22.8801 53.5967 22.9959 53.5564 23.1066C52.9545 24.7618 52.9164 26.7152 52.9164 27.7694C52.9164 28.5727 52.6921 29.7417 52.3672 30.8789C52.3199 31.0445 52.2651 31.2291 52.2057 31.4291C51.9371 32.3341 51.5748 33.5543 51.3907 34.7511C51.2373 35.7479 51.1153 36.4382 50.895 37.1481C50.7232 37.7016 50.5707 38.0798 50.3796 38.5534C50.2307 38.9225 50.0584 39.3495 49.8355 39.9627C49.8249 39.9833 49.779 40.061 49.6288 40.237C49.5399 40.3412 49.4575 40.4318 49.3393 40.5617C49.2917 40.6141 49.2384 40.6727 49.1764 40.7413C49.0458 40.8858 48.8864 41.0643 48.7181 41.2679C48.6592 41.2955 48.581 41.3291 48.483 41.3658C48.3021 41.4336 48.1067 41.492 47.9288 41.5341C47.7386 41.5792 47.6388 41.5889 47.6421 41.5887C46.4862 41.6743 45.4219 41.6492 44.1986 41.6203C43.5189 41.6043 42.79 41.5871 41.9691 41.5871C39.8576 41.5871 37.749 41.6233 35.674 41.6588L35.6556 41.6592C33.5645 41.695 31.5071 41.7302 29.4539 41.7302C28.6648 41.7302 28.0275 41.6388 27.1729 41.5162C26.6949 41.4476 26.1488 41.3692 25.4702 41.2917C25.188 41.2594 24.6672 41.1622 24.1582 41.0122C23.9188 40.9416 23.7312 40.8736 23.6028 40.8182C23.555 40.7537 23.4746 40.6314 23.3711 40.4215C23.1796 40.0328 23.0157 39.5722 22.8052 38.9523C22.6736 38.5648 22.5495 38.2088 22.432 37.8717C22.1354 37.0208 21.8807 36.2901 21.6529 35.4766C21.5314 35.0429 21.4578 34.6312 21.3545 34.0531C21.3175 33.8462 21.2767 33.618 21.2286 33.3598C21.068 32.4994 20.8298 31.3592 20.32 30.2122C20.2475 30.0491 20.146 29.661 20.0598 28.8531C20.042 28.6863 20.0209 28.442 19.9966 28.1608C19.9441 27.5525 19.8767 26.772 19.7957 26.2325C19.5343 24.4897 18.9221 22.5763 18.4401 21.0699C18.2654 20.524 18.1079 20.0316 17.9903 19.62C17.955 19.4965 17.9226 19.3744 17.8907 19.2472ZM23.4974 40.7683C23.4975 40.7683 23.4995 40.7693 23.5031 40.7715C23.4992 40.7694 23.4974 40.7683 23.4974 40.7683ZM49.8381 39.9568C49.8382 39.9567 49.8375 39.9586 49.8355 39.9626C49.8369 39.9589 49.8379 39.9568 49.8381 39.9568ZM55.8222 18.342C55.8222 18.3424 55.8222 18.3428 55.8222 18.3431L55.8222 18.342ZM14.3793 6.13407C14.3793 6.13412 14.3789 6.13265 14.3781 6.12956C14.3789 6.13248 14.3793 6.13402 14.3793 6.13407Z" fill="white"/>
<path fill-rule="evenodd" clip-rule="evenodd" d="M21.4223 51.3696C22.0172 51.2915 22.624 51.4819 23.212 51.8217C23.4596 51.9649 23.7158 52.0737 23.9526 52.1683C24.0203 52.1953 24.0854 52.2209 24.1487 52.2457L24.1487 52.2457C24.3159 52.3112 24.4698 52.3716 24.6242 52.4415C24.8073 52.5243 24.939 52.6018 25.0287 52.6915C25.0626 52.7254 25.0983 52.7722 25.1513 52.8503L25.1781 52.8902C25.2224 52.9563 25.2818 53.045 25.3454 53.1245C25.391 53.1813 25.4283 53.2258 25.4594 53.2631L25.4595 53.2631C25.5262 53.3429 25.5649 53.3891 25.5968 53.4508C25.6669 53.5865 25.7354 53.7275 25.8021 53.8695C25.8865 54.0489 25.9538 54.2258 26.0012 54.4058C26.0293 54.5127 26.0529 54.6225 26.0793 54.7456L26.0802 54.7495C26.1055 54.8678 26.1336 54.9989 26.1683 55.1305C26.1966 55.2377 26.1944 55.3559 26.1827 55.5669C26.1715 55.7687 26.1473 55.9661 26.1106 56.168C26.0848 56.31 26.0439 56.453 25.9932 56.6126C25.9791 56.6569 25.9636 56.7044 25.9475 56.754C25.9091 56.8716 25.867 57.0006 25.8314 57.1254C25.7514 57.4055 25.5965 57.7012 25.4127 57.9769C25.2131 58.2762 24.9903 58.5696 24.7556 58.8443C24.565 59.0674 24.3839 59.264 24.1929 59.4087C24.1108 59.4709 24.0145 59.5491 23.9276 59.6197L23.9275 59.6197L23.9275 59.6197C23.8744 59.6629 23.8248 59.7031 23.7842 59.7351C23.6571 59.8351 23.546 59.9138 23.4365 59.9713C23.3275 60.0286 23.2064 60.0681 23.0369 60.1235L22.9986 60.136L22.9647 60.1471C22.7531 60.2164 22.5668 60.2773 22.3776 60.3215L22.2063 60.3612L22.2063 60.3612C21.944 60.4217 21.6686 60.4853 21.3977 60.5611C21.2605 60.5995 21.1218 60.6201 20.9386 60.6462C20.7937 60.6669 20.7139 60.6745 20.6506 60.6668C20.5705 60.657 20.4847 60.6309 20.3448 60.5872C20.2116 60.5456 20.0864 60.5207 19.9792 60.4998C19.9539 60.4949 19.9217 60.4858 19.8707 60.469L19.8348 60.4569L19.8346 60.4569C19.7928 60.4428 19.7374 60.4241 19.6875 60.4095C19.6398 60.3955 19.5921 60.3834 19.5541 60.3737L19.5495 60.3726C19.5075 60.3619 19.4755 60.3537 19.4456 60.3449C19.3846 60.327 19.3632 60.3149 19.3572 60.3108C19.2486 60.2373 19.109 60.1716 19.0283 60.1336L19.0282 60.1336C19.0074 60.1238 18.9904 60.1158 18.979 60.1101C18.9557 60.0983 18.9298 60.0856 18.9079 60.075L18.8842 60.0634C18.8561 60.0496 18.8344 60.0385 18.8155 60.0281C18.777 60.0069 18.7646 59.9958 18.7621 59.9933C18.7208 59.9526 18.6807 59.9135 18.6414 59.875C18.5706 59.8057 18.502 59.7386 18.4321 59.6688C18.2418 59.4785 18.1152 59.2522 17.9409 58.941L17.9149 58.8945C17.8616 58.7994 17.7986 58.7099 17.7529 58.6449L17.7345 58.6186C17.6815 58.5429 17.651 58.4953 17.6305 58.452C17.5933 58.3738 17.5544 58.2979 17.5194 58.2297L17.5175 58.226C17.4808 58.1545 17.4483 58.091 17.4183 58.0277C17.3509 57.8856 17.2679 57.763 17.1998 57.6662C17.1803 57.6385 17.1624 57.6134 17.1458 57.5901L17.1458 57.5901C17.0983 57.5234 17.0611 57.4712 17.0256 57.4134C16.9822 57.3426 16.9286 57.2568 16.8678 57.1734C16.8621 57.1655 16.8567 57.1585 16.8526 57.1531L16.8463 57.145C16.8169 57.0861 16.7767 57.0351 16.7292 56.9935C16.7201 56.6871 16.7582 56.3781 16.8029 56.0153L16.8067 55.9845C16.8191 55.8842 16.8294 55.793 16.8393 55.7047L16.8393 55.7047C16.8529 55.584 16.8659 55.4688 16.8827 55.3435C16.8868 55.3132 16.8941 55.2691 16.9026 55.2175C16.9218 55.1004 16.9475 54.9445 16.9569 54.8225C16.9757 54.58 16.998 54.3912 17.054 54.2453C17.1298 54.0476 17.2387 53.858 17.3712 53.6303C17.4431 53.5069 17.5251 53.4079 17.6311 53.2799L17.6311 53.2799C17.6816 53.219 17.7375 53.1516 17.8003 53.0718C17.9407 52.8935 18.1221 52.7215 18.3238 52.5374L18.4073 52.461C18.5555 52.3252 18.6865 52.2052 18.8298 52.0918C19.1217 51.8609 19.3435 51.695 19.5773 51.6289C19.6138 51.6186 19.6441 51.6155 19.7039 51.6093C19.7366 51.606 19.7782 51.6017 19.8346 51.5948C19.9723 51.578 20.1087 51.5589 20.241 51.5405L20.3208 51.5294C20.4968 51.5049 20.6593 51.4805 20.8187 51.4565L20.8187 51.4565L20.8187 51.4565C21.0182 51.4264 21.2126 51.3972 21.4223 51.3696ZM16.0215 57.7118C16.0072 57.6918 15.9779 57.6502 15.9515 57.5936C15.8347 57.5112 15.7538 57.3797 15.741 57.2262C15.7025 56.7636 15.7573 56.3213 15.8063 55.9268L15.8143 55.8621C15.8237 55.7856 15.8333 55.701 15.8432 55.6135C15.8584 55.4797 15.8743 55.3392 15.8917 55.2103C15.9053 55.1085 15.9177 55.0371 15.9284 54.9758C15.9421 54.8969 15.953 54.8345 15.9599 54.7452C15.9778 54.5146 16.0053 54.187 16.1203 53.8872C16.2281 53.6061 16.3764 53.3515 16.5016 53.1366L16.507 53.1271C16.6233 52.9275 16.7862 52.7308 16.9111 52.58L16.9111 52.58C16.9502 52.5328 16.9856 52.49 17.0147 52.4531C17.2117 52.2029 17.4494 51.9816 17.6498 51.7987L17.7262 51.7287L17.7262 51.7287C17.8737 51.5934 18.0351 51.4455 18.2093 51.3076L18.2315 51.29C18.492 51.0837 18.8595 50.7927 19.3052 50.6667C19.4334 50.6304 19.5873 50.615 19.6707 50.6067C19.6885 50.6049 19.7031 50.6034 19.7135 50.6022C19.8418 50.5865 19.9681 50.5689 20.1001 50.5504L20.1002 50.5504L20.1832 50.5389C20.3297 50.5185 20.4879 50.4948 20.6492 50.4706C20.8646 50.4384 21.0856 50.4053 21.2921 50.3781C22.1878 50.2604 23.0212 50.5564 23.7124 50.9559C23.8956 51.0618 24.0972 51.1492 24.3236 51.2396C24.3779 51.2613 24.4347 51.2836 24.4932 51.3065L24.4932 51.3066C24.6677 51.375 24.8568 51.4491 25.0365 51.5304C25.2494 51.6268 25.5155 51.764 25.7358 51.9843C25.8408 52.0893 25.9205 52.2029 25.9787 52.2887L26.0207 52.351C26.0621 52.4127 26.0913 52.4561 26.1257 52.499C26.1378 52.5141 26.154 52.5333 26.173 52.5558L26.1731 52.5559C26.2574 52.6558 26.3973 52.8216 26.4852 52.9917C26.5629 53.142 26.6371 53.295 26.7071 53.444C26.8119 53.6669 26.9025 53.9014 26.9683 54.1513C27.0027 54.2821 27.0306 54.4125 27.0558 54.5301L27.0571 54.536C27.0835 54.659 27.1071 54.7687 27.1353 54.8755C27.2077 55.1499 27.1927 55.4161 27.1822 55.6037V55.6037L27.1812 55.6224C27.1675 55.8687 27.138 56.1073 27.0944 56.3469C27.0571 56.5522 27.0009 56.7433 26.9463 56.9153C26.9271 56.9757 26.9088 57.0319 26.8912 57.0858C26.8558 57.1942 26.8234 57.2934 26.7929 57.4001C26.6743 57.8153 26.461 58.2073 26.2447 58.5316C26.0224 58.8651 25.7755 59.1901 25.5159 59.4939C25.3205 59.7226 25.0803 59.991 24.7967 60.2058C24.7197 60.2642 24.6563 60.3159 24.5864 60.373L24.5863 60.3731L24.5863 60.3731C24.5321 60.4173 24.474 60.4648 24.4026 60.521C24.2589 60.634 24.0916 60.7568 23.9015 60.8566C23.7132 60.9556 23.5113 61.021 23.3575 61.0708L23.3095 61.0864L23.2656 61.1008C23.0635 61.167 22.8383 61.2409 22.6048 61.2953L22.4228 61.3375C22.1618 61.3978 21.9139 61.4551 21.6673 61.5241C21.4615 61.5817 21.2626 61.6101 21.0913 61.6346L21.0913 61.6346L21.0801 61.6362L21.0716 61.6374C20.9421 61.6559 20.7393 61.6849 20.5299 61.6595C20.3539 61.6381 20.1869 61.5857 20.0704 61.5492L20.0704 61.5492L20.0469 61.5418C19.9716 61.5183 19.8948 61.5021 19.788 61.4813C19.6991 61.464 19.6186 61.4388 19.5576 61.4187C19.5332 61.4106 19.513 61.4038 19.4951 61.3978C19.4612 61.3863 19.4357 61.3777 19.4059 61.369C19.3773 61.3606 19.3462 61.3527 19.3036 61.3419L19.3015 61.3413C19.2625 61.3314 19.2133 61.319 19.1634 61.3043C19.0628 61.2747 18.9276 61.2275 18.7967 61.1389C18.756 61.1114 18.7265 61.0976 18.6738 61.0731L18.6738 61.0731C18.6389 61.0568 18.5938 61.0358 18.5285 61.0028C18.5197 60.9984 18.508 60.9928 18.494 60.9862C18.4015 60.9422 18.2064 60.8494 18.0606 60.706C18.0243 60.6702 17.9866 60.6334 17.9483 60.5959L17.9482 60.5957C17.8745 60.5237 17.7984 60.4493 17.725 60.3759C17.4325 60.0833 17.2415 59.7405 17.0829 59.4557L17.0426 59.3834C17.0159 59.3358 16.9845 59.2911 16.9359 59.2217L16.9147 59.1913C16.8605 59.1138 16.7867 59.0065 16.7271 58.8809C16.697 58.8175 16.6645 58.754 16.6277 58.6824L16.6266 58.6802L16.6266 58.6802C16.5913 58.6115 16.5521 58.535 16.5147 58.4561C16.4856 58.3948 16.4439 58.3297 16.382 58.2417L16.3447 58.1893L16.3447 58.1893C16.2931 58.117 16.2286 58.0266 16.1733 57.9365C16.1313 57.8681 16.0955 57.8115 16.06 57.7629C16.0603 57.7633 16.0599 57.7628 16.0582 57.7605L16.0506 57.7506L16.0504 57.7504C16.0443 57.7425 16.0331 57.728 16.0215 57.7118Z" fill="white"/>
<path fill-rule="evenodd" clip-rule="evenodd" d="M51.0602 50.4609C50.6631 50.3982 50.2541 50.4026 49.8963 50.4065C49.8139 50.4074 49.7341 50.4082 49.6579 50.4082C49.0988 50.4082 48.5776 50.5859 48.1327 50.834C47.7832 51.0289 47.4734 51.2315 47.1622 51.533C47.0398 51.6516 46.9235 51.7573 46.8012 51.8685L46.8012 51.8685C46.7153 51.9466 46.6264 52.0274 46.5303 52.1173C46.4988 52.1468 46.4647 52.171 46.4004 52.2166L46.4004 52.2166L46.351 52.2518C46.2693 52.3102 46.145 52.4012 46.0391 52.5298C45.9721 52.6114 45.923 52.6756 45.8803 52.7314L45.8803 52.7315C45.8179 52.813 45.7691 52.8769 45.6975 52.9511C45.487 53.1696 45.3595 53.4102 45.2625 53.6333C45.1788 53.8259 45.1338 54.0266 45.1024 54.1955C45.086 54.2836 45.0745 54.3535 45.0641 54.417C45.051 54.497 45.0396 54.5668 45.022 54.6499L45.0206 54.6567C44.9408 55.0347 44.8481 55.4736 44.8481 55.9287C44.8481 56.3066 44.8775 56.6452 44.9887 57.0383C45.1356 57.5578 45.324 58.0625 45.5299 58.5485L45.5559 58.6102C45.6263 58.7775 45.7143 58.9867 45.8248 59.1814C45.9512 59.4042 46.1272 59.6464 46.388 59.8257C46.5603 59.9442 46.7523 60.0323 46.8982 60.0993C46.9336 60.1155 46.9663 60.1305 46.9953 60.1444L47.203 59.7103L46.9953 60.1444C47.088 60.1887 47.2059 60.232 47.285 60.2611C47.3121 60.2711 47.3347 60.2793 47.3502 60.2854C47.3598 60.2892 47.3764 60.2977 47.4309 60.3313L47.4422 60.3383L47.4422 60.3383C47.4876 60.3665 47.5656 60.415 47.6532 60.4533C47.834 60.5322 48.0094 60.6296 48.2105 60.7412L48.2257 60.7497C48.4255 60.8606 48.6513 60.9854 48.8943 61.0869C48.9456 61.1083 49.015 61.139 49.0911 61.1726L49.0911 61.1726C49.2107 61.2255 49.3468 61.2856 49.4547 61.3284C49.6613 61.4104 49.9012 61.4893 50.1639 61.5175C50.3861 61.5413 50.6342 61.566 50.8847 61.5682C50.9071 61.5684 50.9343 61.5699 50.9807 61.5726L50.9809 61.5726L50.9811 61.5726C51.0223 61.575 51.0777 61.5782 51.1352 61.5787C51.2392 61.5796 51.4188 61.5744 51.5936 61.4935L51.594 61.4933C51.5974 61.4917 51.6036 61.4888 51.6338 61.4843C51.6479 61.4821 51.6593 61.4807 51.6757 61.4787L51.6758 61.4787L51.7115 61.4741C51.7458 61.4697 51.7897 61.4635 51.8389 61.4537C51.8825 61.4449 51.9202 61.4347 51.9486 61.4265L51.9856 61.4156L52.0104 61.4083L52.0227 61.4051C52.0985 61.405 52.1511 61.4031 52.1921 61.4017H52.1921C52.2539 61.3995 52.2893 61.3983 52.338 61.4052C52.3361 61.405 52.337 61.4052 52.3727 61.4122C52.3987 61.4172 52.4386 61.4249 52.4819 61.4306C52.5227 61.436 52.5847 61.4423 52.6532 61.4385C52.7077 61.4355 52.8459 61.4232 52.9774 61.3276C53.0876 61.2475 53.1653 61.144 53.2146 61.0332C53.3508 60.9811 53.4457 60.8968 53.4957 60.8488C53.5323 60.8136 53.5667 60.7757 53.5872 60.7531L53.5943 60.7452C53.6133 60.7245 53.6209 60.7167 53.6229 60.7148C53.6233 60.7144 53.6234 60.7142 53.6234 60.7142C53.6234 60.7142 53.6233 60.7143 53.6232 60.7144L53.623 60.7146C53.6864 60.66 53.7525 60.6114 53.8356 60.5504L53.8356 60.5503C53.8601 60.5323 53.8861 60.5132 53.914 60.4925C54.0255 60.4097 54.1613 60.3053 54.284 60.1758C54.3911 60.0626 54.4588 59.9405 54.5012 59.8614L54.5309 59.8055C54.5598 59.7511 54.5736 59.725 54.5928 59.6979C54.6096 59.6743 54.6322 59.6487 54.6794 59.5971L54.6855 59.5906C54.7259 59.5465 54.7879 59.4789 54.8436 59.4007C54.8722 59.3604 54.906 59.3211 54.9599 59.2582L54.96 59.2582L54.9619 59.256C55.0111 59.1985 55.0792 59.1192 55.1408 59.0279C55.2466 58.8709 55.3313 58.6932 55.3949 58.5599L55.4225 58.5022C55.5681 58.2005 55.6922 57.8885 55.8034 57.5888C56.0776 56.8502 56.1407 56.1045 56.1245 55.3714C56.119 55.1213 56.0635 54.8893 56.0053 54.6921C55.9774 54.5976 55.9469 54.5046 55.9192 54.4203L55.9154 54.4086C55.8858 54.3184 55.8596 54.2381 55.837 54.16C55.7887 53.9928 55.7277 53.8266 55.656 53.6675L55.6517 53.6469C55.6472 53.626 55.6384 53.5856 55.6234 53.5414C55.6092 53.4996 55.5801 53.4251 55.5206 53.3508C55.4766 53.2958 55.4361 53.231 55.4169 53.1873L54.9592 53.3887L55.4169 53.1873C55.3138 52.9529 55.1787 52.751 55.0667 52.5836L55.0667 52.5836L55.0387 52.5417C54.6784 52.0013 54.2414 51.5664 53.7232 51.1993L53.4342 51.6073L53.7232 51.1993C53.3044 50.9026 52.7498 50.7798 52.3742 50.7073C52.2527 50.6838 52.1457 50.657 52.026 50.627C51.9501 50.608 51.869 50.5876 51.776 50.5661C51.6386 50.5343 51.5021 50.516 51.3841 50.5018L51.2899 50.4907C51.2062 50.481 51.1338 50.4726 51.0602 50.4609ZM52.8314 60.0978C52.733 60.1257 52.647 60.183 52.5834 60.2596C52.508 60.2922 52.4422 60.3429 52.3915 60.4061C52.2724 60.3975 52.1454 60.4014 52.069 60.4038C52.0451 60.4045 52.0262 60.4051 52.014 60.4051C51.8968 60.4051 51.8026 60.428 51.7403 60.4455C51.7235 60.4502 51.6733 60.4651 51.6718 60.4656C51.6559 60.4701 51.6479 60.4721 51.6428 60.4731C51.6136 60.4789 51.6006 60.4804 51.5792 60.4828C51.5602 60.485 51.5347 60.4879 51.4854 60.4953C51.4067 60.5071 51.3063 60.5275 51.1931 60.5772C51.1838 60.5781 51.1683 60.5789 51.1443 60.5787C51.1142 60.5784 51.0816 60.5767 51.0381 60.5742L51.0301 60.5738C50.9923 60.5716 50.9418 60.5687 50.8933 60.5682C50.697 60.5665 50.4924 60.547 50.2704 60.5232C50.1366 60.5088 49.9924 60.466 49.8236 60.3989C49.7147 60.3557 49.631 60.3183 49.5399 60.2775C49.4644 60.2437 49.3838 60.2076 49.2796 60.1641C49.0953 60.0871 48.9156 59.9889 48.7111 59.8754L48.6816 59.859L48.6815 59.8589C48.492 59.7536 48.2789 59.6352 48.0532 59.5367C48.0364 59.5294 48.0173 59.5182 47.9567 59.4807L47.9531 59.4785C47.9035 59.4478 47.818 59.3949 47.7167 59.355L47.5334 59.8202L47.7167 59.355C47.6515 59.3294 47.6056 59.3128 47.5679 59.2992L47.5678 59.2992L47.5678 59.2992C47.5148 59.28 47.478 59.2668 47.4268 59.2423C47.3682 59.2142 47.3167 59.1905 47.2703 59.169L47.2703 59.169L47.2703 59.169C47.1394 59.1085 47.0494 59.067 46.9545 59.0017C46.8664 58.9411 46.7815 58.8412 46.6945 58.6879C46.6151 58.5479 46.5507 58.3954 46.4774 58.2216L46.4506 58.1584C46.2559 57.6987 46.0835 57.2346 45.951 56.7661C45.8719 56.4867 45.8481 56.245 45.8481 55.9287C45.8481 55.5918 45.9172 55.2509 46.0005 54.8565C46.0201 54.7637 46.0402 54.6439 46.0578 54.5386C46.0681 54.4776 46.0775 54.4214 46.0855 54.3784C46.113 54.2308 46.1417 54.1191 46.1795 54.0321C46.2538 53.8613 46.3241 53.742 46.4176 53.645C46.5238 53.5349 46.6371 53.3884 46.723 53.2776C46.7577 53.2327 46.7879 53.1937 46.8114 53.1652C46.8269 53.1463 46.8562 53.1199 46.9326 53.0653L46.9622 53.0444L46.9622 53.0444C47.0271 52.9987 47.1273 52.9282 47.2135 52.8476C47.2865 52.7793 47.3678 52.7052 47.4521 52.6284L47.4521 52.6284C47.5873 52.5053 47.73 52.3752 47.858 52.2512C48.0843 52.032 48.3133 51.8783 48.6197 51.7074C48.9571 51.5193 49.311 51.4082 49.6579 51.4082C49.7572 51.4082 49.8524 51.4073 49.9444 51.4065L49.9444 51.4065C50.2943 51.4032 50.5979 51.4003 50.9043 51.4487C51 51.4638 51.1012 51.4756 51.1898 51.4858L51.2645 51.4946C51.3761 51.5081 51.4682 51.5213 51.5504 51.5403C51.607 51.5534 51.6721 51.5696 51.7418 51.587C51.8822 51.6219 52.041 51.6614 52.1847 51.6891C52.5699 51.7635 52.9231 51.858 53.1452 52.0153C53.5714 52.3172 53.9196 52.6658 54.2066 53.0964L54.2239 53.1223C54.3464 53.306 54.4351 53.4389 54.5016 53.59C54.5508 53.7018 54.6177 53.8105 54.6833 53.9013L54.6868 53.9165C54.6903 53.9315 54.6954 53.9512 54.7022 53.9731C54.7089 53.9947 54.7189 54.0231 54.7334 54.0544C54.7902 54.1772 54.8386 54.3071 54.8763 54.4375C54.9046 54.5355 54.9363 54.6322 54.9652 54.7204L54.9675 54.7271L54.9675 54.7272C54.9964 54.8154 55.0227 54.8955 55.0462 54.9751C55.0945 55.139 55.1221 55.2728 55.1248 55.3933C55.1394 56.0566 55.0801 56.6639 54.8659 57.2409C54.7596 57.5274 54.648 57.8063 54.5219 58.0675L54.4887 58.1366L54.4887 58.1366C54.4223 58.275 54.3728 58.3781 54.3117 58.4687C54.2867 58.5058 54.2546 58.5446 54.2029 58.6048L54.1918 58.6178C54.1465 58.6704 54.0849 58.7422 54.0288 58.8209C54.0123 58.8441 53.9901 58.8692 53.9424 58.9213L53.9372 58.927C53.8963 58.9715 53.8337 59.0397 53.7773 59.1192C53.7161 59.2054 53.6652 59.3025 53.6343 59.3614L53.6343 59.3614L53.6198 59.389C53.5835 59.4566 53.5676 59.4778 53.558 59.488C53.4989 59.5504 53.4228 59.6116 53.3178 59.6897L53.2598 59.7323L53.2598 59.7324C53.1727 59.7963 53.0664 59.8743 52.971 59.9564C52.9441 59.9795 52.921 60.0021 52.9028 60.0208C52.8847 60.0395 52.8679 60.0577 52.8552 60.0717L52.845 60.0829L52.8314 60.0978Z" fill="white"/>
<path d="M14.5 34C14.227 35.0384 14.0003 36.4548 14.0003 37.5C14.0003 38.461 13.4955 40.5403 14.0001 41.5" stroke="white" stroke-linecap="round"/>
<path d="M57.5 38C57.5 39.7372 58.144 41.366 58.144 43.1054C58.144 44.9939 58.528 46.8476 58.6848 48.7293" stroke="white" stroke-width="0.6" stroke-linecap="round"/>
<path d="M29.592 48.9456C29.2843 50.1767 29.5 51.2375 29.5 52.5C29.5 54.1215 29.9487 56.6186 29.5 58" stroke="white" stroke-width="0.6" stroke-linecap="round"/>
<path d="M16.5 57.5C17 60 15.897 61.4604 15.5 63" stroke="white" stroke-width="0.7" stroke-linecap="round"/>
</g>
<path d="M21.5 61.5C22 62.5 21.1682 64.6562 21 65.5" stroke="white" stroke-width="0.7" stroke-linecap="round"/>
<path d="M54.5 59C54.0002 61.5 54.0864 63.3991 55.4999 65.5" stroke="white" stroke-width="0.54" stroke-linecap="round"/>
<path d="M47 60C47 61 47 61 46.5001 63.5C46.19 65.0504 46.969 66.1279 46.5 67.5" stroke="white" stroke-width="0.75" stroke-linecap="round"/>
<defs>
<clipPath id="clip0_64_57">
<rect width="64" height="64" fill="white"/>
</clipPath>
</defs>
</svg>
