<svg width="64" height="64" viewBox="0 0 64 64" fill="none" xmlns="http://www.w3.org/2000/svg">
<g clip-path="url(#clip0_18_26)">
<path d="M15.6267 15.8904C15.9134 15.6819 16.3179 15.7473 16.6524 15.7473C17.6914 15.7473 18.7304 15.7473 19.7693 15.7473C21.492 15.7473 23.2055 15.6041 24.9296 15.6041C29.0801 15.6041 33.2307 15.6041 37.3812 15.6041C40.0544 15.6041 42.7194 15.7473 45.388 15.7473C48.2046 15.7473 51.1502 15.7502 53.9514 16.0653C54.8784 16.1696 56.9811 15.7664 57.6408 16.606C58.0416 17.1162 58.9613 17.3229 59.2469 17.8941C59.3873 18.1749 59.2902 18.7612 59.2787 19.0708C59.2532 19.7597 58.5851 20.773 58.1974 21.3369C57.5189 22.3238 57.2527 23.1835 56.8457 24.3027C56.4774 25.3154 56.4163 26.7015 56.4163 27.7694C56.4163 29.057 56.0888 30.5935 55.7325 31.8404C55.4141 32.9549 55.0306 34.1088 54.8499 35.2833C54.6948 36.2918 54.5415 37.2064 54.2377 38.1855C53.919 39.2122 53.4881 40.1592 53.1245 41.1592C52.7356 42.2287 51.9109 42.8467 51.2639 43.6877C50.6775 44.45 48.8287 45.0104 47.9006 45.0792C45.9468 45.2239 43.9269 45.0871 41.969 45.0871C37.8036 45.0871 33.6302 45.2302 29.4538 45.2302C27.9674 45.2302 26.5479 44.9376 25.0727 44.7691C24.0843 44.6561 22.1971 44.211 21.4311 43.5843C20.411 42.7497 19.8987 41.2784 19.491 40.0779C19.0725 38.8455 18.6347 37.6783 18.2824 36.4203C17.8415 34.8457 17.7914 33.1408 17.1216 31.6337C16.5047 30.2459 16.5553 28.2243 16.3344 26.7517C16.021 24.6625 15.2045 22.6103 14.6249 20.5816C14.3431 19.5952 14.185 18.5852 13.8457 17.6158C13.6354 17.0149 13.4799 16.0169 13.4799 15.3895C13.4799 14.3542 13.3264 13.3643 13.1619 12.3441C13.0534 11.6714 12.5876 11.1815 12.3668 10.5631C11.9863 9.49784 11.5884 8.41649 11.1184 7.38261C10.8587 6.81126 10.9434 6.18278 10.5062 5.69696C9.96532 5.096 8.28346 4.87004 7.47678 4.87004C6.44684 4.87004 5.49016 4.84017 4.49509 5.12448C3.83279 5.31371 2.90259 5.05178 2.31647 5.44253" stroke="white" stroke-width="5" stroke-linecap="round"/>
<path d="M16.2393 57.1847C16.2038 56.7579 16.2584 56.3464 16.3105 55.9233C16.3371 55.708 16.3583 55.492 16.3872 55.2769C16.4095 55.111 16.4455 54.9511 16.4585 54.7839C16.4768 54.5473 16.5017 54.2891 16.5872 54.0662C16.6798 53.8248 16.8097 53.601 16.9392 53.3787C17.0685 53.1566 17.2491 52.9637 17.4075 52.7625C17.5762 52.5482 17.7858 52.3515 17.9868 52.1681C18.1627 52.0076 18.3324 51.8478 18.5196 51.6997C18.7964 51.4807 19.0951 51.2457 19.4413 51.1478C19.5474 51.1178 19.6648 51.1118 19.7741 51.0985C19.9343 51.0789 20.0922 51.0563 20.252 51.0341C20.6211 50.9828 20.988 50.9224 21.3573 50.8739C22.1026 50.776 22.8226 51.0191 23.4622 51.3888C23.8931 51.6379 24.3777 51.7811 24.8304 51.9859C25.0284 52.0755 25.2273 52.1829 25.3823 52.3379C25.5212 52.4768 25.613 52.6587 25.7356 52.8118C25.8401 52.9421 25.9638 53.0718 26.041 53.2212C26.1149 53.3642 26.1863 53.5113 26.2547 53.6568C26.3492 53.8579 26.4282 54.0636 26.4848 54.2785C26.5479 54.5184 26.5886 54.7631 26.6518 55.003C26.7034 55.1984 26.6931 55.395 26.682 55.5946C26.6695 55.8187 26.6427 56.0367 26.6025 56.2575C26.5394 56.6047 26.4085 56.9258 26.3122 57.2627C26.2129 57.6104 26.0288 57.9542 25.8288 58.2543C25.6178 58.5707 25.3829 58.8799 25.1358 59.1691C24.9428 59.395 24.7322 59.6275 24.4948 59.8073C24.2259 60.011 23.9686 60.2566 23.669 60.414C23.5062 60.4995 23.3281 60.5543 23.1541 60.6112C22.9347 60.683 22.7161 60.7559 22.4912 60.8084C22.1708 60.8832 21.8495 60.9539 21.5326 61.0426C21.3588 61.0913 21.1879 61.1157 21.0094 61.1412C20.8724 61.1608 20.7289 61.18 20.5903 61.1631C20.4561 61.1468 20.3243 61.1046 20.1959 61.0645C20.0916 61.032 19.9906 61.0114 19.8836 60.9906C19.7694 60.9683 19.6584 60.922 19.5467 60.8892C19.3903 60.8433 19.2139 60.8176 19.077 60.7249C18.9747 60.6557 18.8634 60.6118 18.7538 60.5564C18.6352 60.4966 18.5071 60.4438 18.4114 60.3496C18.3004 60.2403 18.1887 60.1325 18.0786 60.0223C17.8199 59.7636 17.6562 59.4555 17.4788 59.139C17.3875 58.9761 17.259 58.8353 17.1788 58.6665C17.1109 58.5235 17.0343 58.3849 16.9666 58.2419C16.8701 58.0385 16.717 57.8664 16.5995 57.6749C16.5568 57.6053 16.5121 57.5342 16.4639 57.4681C16.4423 57.4385 16.4109 57.4035 16.3996 57.3695" stroke="white" stroke-linecap="round"/>
<path d="M52.968 60.5788C53.1089 60.5788 53.2006 60.4183 53.2969 60.3355C53.4971 60.1633 53.7391 60.0237 53.9209 59.8319C54.0377 59.7086 54.088 59.5451 54.185 59.4085C54.2606 59.3019 54.3611 59.2162 54.4361 59.1108C54.5259 58.9846 54.6395 58.8767 54.7261 58.7483C54.8226 58.6052 54.8971 58.44 54.9721 58.2848C55.1079 58.0034 55.2258 57.708 55.3346 57.4148C55.5787 56.757 55.6399 56.0805 55.6245 55.3823C55.6164 55.0117 55.4583 54.6508 55.3566 54.2988C55.3119 54.1441 55.2545 53.9903 55.187 53.8443C55.1643 53.7955 55.1634 53.7048 55.13 53.6631C55.0672 53.5846 55.0005 53.4826 54.9591 53.3886C54.8684 53.1824 54.7467 53.0053 54.6225 52.819C54.2989 52.3336 53.9063 51.9418 53.4341 51.6073C53.1136 51.3803 52.6597 51.2716 52.2793 51.1982C52.0725 51.1583 51.8682 51.1007 51.6631 51.0532C51.4435 51.0024 51.2059 50.9901 50.9821 50.9548C50.5443 50.8857 50.0999 50.9082 49.6577 50.9082C49.2048 50.9082 48.7672 51.0526 48.3761 51.2707C48.0481 51.4536 47.7787 51.6317 47.51 51.8921C47.3019 52.0937 47.0832 52.2846 46.8718 52.4824C46.7322 52.613 46.5466 52.6999 46.4251 52.8475C46.3019 52.9972 46.1923 53.1581 46.0575 53.298C45.9054 53.4558 45.8065 53.6357 45.7209 53.8327C45.5993 54.1123 45.5735 54.4576 45.5111 54.7532C45.4294 55.1401 45.348 55.5313 45.348 55.9287C45.348 56.2758 45.3746 56.5659 45.4697 56.9022C45.6094 57.3962 45.7898 57.8806 45.9901 58.3534C46.1495 58.7294 46.3222 59.1738 46.6711 59.4137C46.8424 59.5315 47.0245 59.6041 47.2109 59.6933C47.3169 59.744 47.4246 59.7774 47.5333 59.8202C47.6467 59.8649 47.7409 59.946 47.8531 59.995C48.276 60.1795 48.6595 60.447 49.0868 60.6255C49.4489 60.7767 49.8205 60.9778 50.217 61.0203C50.4391 61.0441 50.6655 61.0663 50.8889 61.0682C51.0376 61.0695 51.2439 61.1043 51.3834 61.0397C51.5079 60.9821 51.6093 60.9896 51.7407 60.9633C51.8381 60.9439 51.9109 60.9051 52.0139 60.9051C52.1433 60.9051 52.2805 60.8919 52.4088 60.9103C52.4674 60.9186 52.6282 60.9632 52.6832 60.9232C52.7469 60.8769 52.7816 60.797 52.7816 60.7187" stroke="white" stroke-linecap="round"/>
<rect x="45" y="51" width="11" height="10" rx="5" fill="white"/>
<rect x="16" y="51" width="11" height="10" rx="5" fill="white"/>
</g>
<defs>
<clipPath id="clip0_18_26">
<rect width="64" height="64" fill="white"/>
</clipPath>
</defs>
</svg>
