<svg width="68" height="46" viewBox="0 0 68 46" fill="none" xmlns="http://www.w3.org/2000/svg">
<path d="M4 4.28235C24.1139 4.43443 43.7188 4.86725 63.7635 4.10082" stroke="white" stroke-width="7" stroke-linecap="round"/>
<path d="M4.27014 40.8722C4.40607 39.0513 24.4405 40.3134 26.7754 40.3134C33.1526 40.3134 39.5297 40.3134 45.9068 40.3134C51.9739 40.3134 58.0024 41.9897 64 41.9897" stroke="white" stroke-width="7" stroke-linecap="round"/>
<path d="M4.27014 22.0356C8.4962 22.0356 12.7223 22.0356 16.9483 22.0356C19.9721 22.0356 22.9958 22.0356 26.0196 22.0356C27.7504 22.0356 29.4829 21.9975 31.2135 22.0356C32.6821 22.0679 34.0217 22.9201 35.4696 23.0493C44.9824 23.898 54.4626 24.1209 64 24.1209" stroke="white" stroke-width="7" stroke-linecap="round"/>
</svg>
