<svg width="70" height="51" viewBox="0 0 70 51" fill="none" xmlns="http://www.w3.org/2000/svg">
<path d="M6 4.28235C26.1139 4.43443 45.7188 4.86725 65.7635 4.10082" stroke="white" stroke-width="7" stroke-linecap="round"/>
<path fill-rule="evenodd" clip-rule="evenodd" d="M9.76428 43.5079C9.16127 43.5508 8.71154 43.602 8.39848 43.6508C7.74038 44.1552 6.90159 44.4291 6.00963 44.3625C4.082 44.2186 2.63599 42.5393 2.77989 40.6116C2.91875 38.7515 4.27057 37.8274 4.74891 37.5468C5.33101 37.2054 5.93269 37.0285 6.3406 36.9276C7.20404 36.7142 8.24779 36.5981 9.26696 36.5255C11.3609 36.3764 14.0774 36.3662 16.7561 36.4105C19.4582 36.4551 22.2196 36.5574 24.4354 36.6476C25.0435 36.6723 25.5995 36.6956 26.0973 36.7164L26.0977 36.7164C27.4811 36.7743 28.416 36.8134 28.7755 36.8134H28.8128H28.8502H28.8876H28.9249H28.9623H28.9997H29.037H29.0744H29.1118H29.1491H29.1865H29.2239H29.2612H29.2986H29.336H29.3733H29.4107H29.4481H29.4854H29.5228H29.5602H29.5975H29.6349H29.6723H29.7096H29.747H29.7844H29.8217H29.8591H29.8965H29.9338H29.9712H30.0085H30.0459H30.0833H30.1206H30.158H30.1954H30.2327H30.2701H30.3075H30.3448H30.3822H30.4196H30.4569H30.4943H30.5317H30.569H30.6064H30.6438H30.6811H30.7185H30.7559H30.7932H30.8306H30.868H30.9053H30.9427H30.9801H31.0174H31.0548H31.0922H31.1295H31.1669H31.2043H31.2416H31.279H31.3164H31.3537H31.3911H31.4285H31.4658H31.5032H31.5406H31.5779H31.6153H31.6526H31.69H31.7274H31.7647H31.8021H31.8395H31.8768H31.9142H31.9516H31.9889H32.0263H32.0637H32.101H32.1384H32.1758H32.2131H32.2505H32.2879H32.3252H32.3626H32.4H32.4373H32.4747H32.5121H32.5494H32.5868H32.6242H32.6615H32.6989H32.7363H32.7736H32.811H32.8484H32.8857H32.9231H32.9605H32.9978H33.0352H33.0726H33.1099H33.1473H33.1847H33.222H33.2594H33.2967H33.3341H33.3715H33.4088H33.4462H33.4836H33.5209H33.5583H33.5957H33.633H33.6704H33.7078H33.7451H33.7825H33.8199H33.8572H33.8946H33.932H33.9693H34.0067H34.0441H34.0814H34.1188H34.1562H34.1935H34.2309H34.2683H34.3056H34.343H34.3804H34.4177H34.4551H34.4925H34.5298H34.5672H34.6046H34.6419H34.6793H34.7167H34.754H34.7914H34.8288H34.8661H34.9035H34.9408H34.9782H35.0156H35.0529H35.0903H35.1277H35.165H35.2024H35.2398H35.2771H35.3145H35.3519H35.3892H35.4266H35.464H35.5013H35.5387H35.5761H35.6134H35.6508H35.6882H35.7255H35.7629H35.8003H35.8376H35.875H35.9124H35.9497H35.9871H36.0245H36.0618H36.0992H36.1366H36.1739H36.2113H36.2487H36.286H36.3234H36.3608H36.3981H36.4355H36.4729H36.5102H36.5476H36.5849H36.6223H36.6597H36.697H36.7344H36.7718H36.8091H36.8465H36.8839H36.9212H36.9586H36.996H37.0333H37.0707H37.1081H37.1454H37.1828H37.2202H37.2575H37.2949H37.3323H37.3696H37.407H37.4444H37.4817H37.5191H37.5565H37.5938H37.6312H37.6686H37.7059H37.7433H37.7807H37.818H37.8554H37.8928H37.9301H37.9675H38.0049H38.0422H38.0796H38.117H38.1543H38.1917H38.229H38.2664H38.3038H38.3411H38.3785H38.4159H38.4532H38.4906H38.528H38.5653H38.6027H38.6401H38.6774H38.7148H38.7522H38.7895H38.8269H38.8643H38.9016H38.939H38.9764H39.0137H39.0511H39.0885H39.1258H39.1632H39.2006H39.2379H39.2753H39.3127H39.35H39.3874H39.4248H39.4621H39.4995H39.5369H39.5742H39.6116H39.649H39.6863H39.7237H39.7611H39.7984H39.8358H39.8731H39.9105H39.9479H39.9852H40.0226H40.06H40.0973H40.1347H40.1721H40.2094H40.2468H40.2842H40.3215H40.3589H40.3963H40.4336H40.471H40.5084H40.5457H40.5831H40.6205H40.6578H40.6952H40.7326H40.7699H40.8073H40.8447H40.882H40.9194H40.9568H40.9941H41.0315H41.0689H41.1062H41.1436H41.181H41.2183H41.2557H41.2931H41.3304H41.3678H41.4052H41.4425H41.4799H41.5173H41.5546H41.592H41.6293H41.6667H41.7041H41.7414H41.7788H41.8162H41.8535H41.8909H41.9283H41.9656H42.003H42.0404H42.0777H42.1151H42.1525H42.1898H42.2272H42.2646H42.3019H42.3393H42.3767H42.414H42.4514H42.4888H42.5261H42.5635H42.6009H42.6382H42.6756H42.713H42.7503H42.7877H42.8251H42.8624H42.8998H42.9372H42.9745H43.0119H43.0493H43.0866H43.124H43.1614H43.1987H43.2361H43.2734H43.3108H43.3482H43.3855H43.4229H43.4603H43.4976H43.535H43.5724H43.6097H43.6471H43.6845H43.7218H43.7592H43.7966H43.8339H43.8713H43.9087H43.946H43.9834H44.0208H44.0581H44.0955H44.1329H44.1702H44.2076H44.245H44.2823H44.3197H44.3571H44.3944H44.4318H44.4692H44.5065H44.5439H44.5813H44.6186H44.656H44.6934H44.7307H44.7681H44.8055H44.8428H44.8802H44.9175H44.9549H44.9923H45.0296H45.067H45.1044H45.1417H45.1791H45.2165H45.2538H45.2912H45.3286H45.3659H45.4033H45.4407H45.478H45.5154H45.5528H45.5901H45.6275H45.6649H45.7022H45.7396H45.777H45.8143H45.8517H45.8891H45.9264H45.9638H46.0012H46.0385H46.0759H46.1133H46.1506H46.188H46.2254H46.2627H46.3001H46.3375H46.3748H46.4122H46.4496H46.4869H46.5243H46.5616H46.599H46.6364H46.6737H46.7111H46.7485H46.7858H46.8232H46.8606H46.8979H46.9353H46.9727H47.01H47.0474H47.0848H47.1221H47.1595H47.1969H47.2342H47.2716H47.309H47.3463H47.3837H47.4211H47.4584H47.4958H47.5332H47.5705H47.6079H47.6453H47.6826H47.72H47.7574H47.7947H47.8321H47.8695H47.9068C51.1918 36.8134 54.4253 37.2629 57.378 37.6733L57.4613 37.6849C60.5208 38.1101 63.2849 38.4897 66 38.4897C67.933 38.4897 69.5 40.0567 69.5 41.9897C69.5 43.9227 67.933 45.4897 66 45.4897C62.7663 45.4897 59.5652 45.0447 56.6303 44.6367L56.4977 44.6182C53.4424 44.1936 50.6581 43.8134 47.9068 43.8134H47.8695H47.8321H47.7947H47.7574H47.72H47.6826H47.6453H47.6079H47.5705H47.5332H47.4958H47.4584H47.4211H47.3837H47.3463H47.309H47.2716H47.2342H47.1969H47.1595H47.1221H47.0848H47.0474H47.01H46.9727H46.9353H46.8979H46.8606H46.8232H46.7858H46.7485H46.7111H46.6737H46.6364H46.599H46.5616H46.5243H46.4869H46.4496H46.4122H46.3748H46.3375H46.3001H46.2627H46.2254H46.188H46.1506H46.1133H46.0759H46.0385H46.0012H45.9638H45.9264H45.8891H45.8517H45.8143H45.777H45.7396H45.7022H45.6649H45.6275H45.5901H45.5528H45.5154H45.478H45.4407H45.4033H45.3659H45.3286H45.2912H45.2538H45.2165H45.1791H45.1417H45.1044H45.067H45.0296H44.9923H44.9549H44.9175H44.8802H44.8428H44.8055H44.7681H44.7307H44.6934H44.656H44.6186H44.5813H44.5439H44.5065H44.4692H44.4318H44.3944H44.3571H44.3197H44.2823H44.245H44.2076H44.1702H44.1329H44.0955H44.0581H44.0208H43.9834H43.946H43.9087H43.8713H43.8339H43.7966H43.7592H43.7218H43.6845H43.6471H43.6097H43.5724H43.535H43.4976H43.4603H43.4229H43.3855H43.3482H43.3108H43.2734H43.2361H43.1987H43.1614H43.124H43.0866H43.0493H43.0119H42.9745H42.9372H42.8998H42.8624H42.8251H42.7877H42.7503H42.713H42.6756H42.6382H42.6009H42.5635H42.5261H42.4888H42.4514H42.414H42.3767H42.3393H42.3019H42.2646H42.2272H42.1898H42.1525H42.1151H42.0777H42.0404H42.003H41.9656H41.9283H41.8909H41.8535H41.8162H41.7788H41.7414H41.7041H41.6667H41.6293H41.592H41.5546H41.5173H41.4799H41.4425H41.4052H41.3678H41.3304H41.2931H41.2557H41.2183H41.181H41.1436H41.1062H41.0689H41.0315H40.9941H40.9568H40.9194H40.882H40.8447H40.8073H40.7699H40.7326H40.6952H40.6578H40.6205H40.5831H40.5457H40.5084H40.471H40.4336H40.3963H40.3589H40.3215H40.2842H40.2468H40.2094H40.1721H40.1347H40.0973H40.06H40.0226H39.9852H39.9479H39.9105H39.8731H39.8358H39.7984H39.7611H39.7237H39.6863H39.649H39.6116H39.5742H39.5369H39.4995H39.4621H39.4248H39.3874H39.35H39.3127H39.2753H39.2379H39.2006H39.1632H39.1258H39.0885H39.0511H39.0137H38.9764H38.939H38.9016H38.8643H38.8269H38.7895H38.7522H38.7148H38.6774H38.6401H38.6027H38.5653H38.528H38.4906H38.4532H38.4159H38.3785H38.3411H38.3038H38.2664H38.229H38.1917H38.1543H38.117H38.0796H38.0422H38.0049H37.9675H37.9301H37.8928H37.8554H37.818H37.7807H37.7433H37.7059H37.6686H37.6312H37.5938H37.5565H37.5191H37.4817H37.4444H37.407H37.3696H37.3323H37.2949H37.2575H37.2202H37.1828H37.1454H37.1081H37.0707H37.0333H36.996H36.9586H36.9212H36.8839H36.8465H36.8091H36.7718H36.7344H36.697H36.6597H36.6223H36.5849H36.5476H36.5102H36.4729H36.4355H36.3981H36.3608H36.3234H36.286H36.2487H36.2113H36.1739H36.1366H36.0992H36.0618H36.0245H35.9871H35.9497H35.9124H35.875H35.8376H35.8003H35.7629H35.7255H35.6882H35.6508H35.6134H35.5761H35.5387H35.5013H35.464H35.4266H35.3892H35.3519H35.3145H35.2771H35.2398H35.2024H35.165H35.1277H35.0903H35.0529H35.0156H34.9782H34.9408H34.9035H34.8661H34.8288H34.7914H34.754H34.7167H34.6793H34.6419H34.6046H34.5672H34.5298H34.4925H34.4551H34.4177H34.3804H34.343H34.3056H34.2683H34.2309H34.1935H34.1562H34.1188H34.0814H34.0441H34.0067H33.9693H33.932H33.8946H33.8572H33.8199H33.7825H33.7451H33.7078H33.6704H33.633H33.5957H33.5583H33.5209H33.4836H33.4462H33.4088H33.3715H33.3341H33.2967H33.2594H33.222H33.1847H33.1473H33.1099H33.0726H33.0352H32.9978H32.9605H32.9231H32.8857H32.8484H32.811H32.7736H32.7363H32.6989H32.6615H32.6242H32.5868H32.5494H32.5121H32.4747H32.4373H32.4H32.3626H32.3252H32.2879H32.2505H32.2131H32.1758H32.1384H32.101H32.0637H32.0263H31.9889H31.9516H31.9142H31.8768H31.8395H31.8021H31.7647H31.7274H31.69H31.6526H31.6153H31.5779H31.5406H31.5032H31.4658H31.4285H31.3911H31.3537H31.3164H31.279H31.2416H31.2043H31.1669H31.1295H31.0922H31.0548H31.0174H30.9801H30.9427H30.9053H30.868H30.8306H30.7932H30.7559H30.7185H30.6811H30.6438H30.6064H30.569H30.5317H30.4943H30.4569H30.4196H30.3822H30.3448H30.3075H30.2701H30.2327H30.1954H30.158H30.1206H30.0833H30.0459H30.0085H29.9712H29.9338H29.8965H29.8591H29.8217H29.7844H29.747H29.7096H29.6723H29.6349H29.5975H29.5602H29.5228H29.4854H29.4481H29.4107H29.3733H29.336H29.2986H29.2612H29.2239H29.1865H29.1491H29.1118H29.0744H29.037H28.9997H28.9623H28.9249H28.8876H28.8502H28.8128H28.7755C28.2565 43.8134 27.0659 43.7635 25.5867 43.7014L25.5866 43.7014C25.1316 43.6823 24.6493 43.6621 24.1508 43.6418C21.9491 43.5522 19.2557 43.4527 16.6403 43.4095C14.0015 43.3659 11.538 43.3815 9.76428 43.5079ZM7.95726 43.7407C7.95696 43.7406 7.96379 43.7382 7.97864 43.734C7.96498 43.7387 7.95756 43.7408 7.95726 43.7407Z" fill="white"/>
<path fill-rule="evenodd" clip-rule="evenodd" d="M29.8461 25.5267L29.8464 25.5267C30.967 25.5184 32.0316 25.5104 33.1366 25.5347C33.2744 25.5378 33.5082 25.5816 34.2423 25.8264C34.2919 25.8429 34.3457 25.8611 34.4034 25.8806C35.0092 26.0856 36.0454 26.4361 37.1587 26.5354C46.8178 27.3972 56.4134 27.6209 66.0001 27.6209C67.9331 27.6209 69.5001 26.0539 69.5001 24.1209C69.5001 22.1879 67.9331 20.6209 66.0001 20.6209C56.512 20.6209 47.1472 20.3988 37.7808 19.5631C37.5522 19.5427 37.2854 19.4622 36.4566 19.1858L36.4186 19.1732C35.7477 18.9493 34.5965 18.5652 33.2906 18.5364C32.0871 18.51 30.8386 18.519 29.6539 18.5276C29.0908 18.5316 28.5422 18.5356 28.0197 18.5356H28.002H27.9843H27.9666H27.9489H27.9311H27.9134H27.8957H27.878H27.8603H27.8425H27.8248H27.8071H27.7894H27.7717H27.754H27.7362H27.7185H27.7008H27.6831H27.6654H27.6477H27.6299H27.6122H27.5945H27.5768H27.5591H27.5414H27.5236H27.5059H27.4882H27.4705H27.4528H27.435H27.4173H27.3996H27.3819H27.3642H27.3465H27.3287H27.311H27.2933H27.2756H27.2579H27.2402H27.2224H27.2047H27.187H27.1693H27.1516H27.1339H27.1161H27.0984H27.0807H27.063H27.0453H27.0275H27.0098H26.9921H26.9744H26.9567H26.939H26.9212H26.9035H26.8858H26.8681H26.8504H26.8327H26.8149H26.7972H26.7795H26.7618H26.7441H26.7264H26.7086H26.6909H26.6732H26.6555H26.6378H26.6201H26.6023H26.5846H26.5669H26.5492H26.5315H26.5137H26.496H26.4783H26.4606H26.4429H26.4252H26.4074H26.3897H26.372H26.3543H26.3366H26.3189H26.3011H26.2834H26.2657H26.248H26.2303H26.2126H26.1948H26.1771H26.1594H26.1417H26.124H26.1062H26.0885H26.0708H26.0531H26.0354H26.0177H25.9999H25.9822H25.9645H25.9468H25.9291H25.9114H25.8936H25.8759H25.8582H25.8405H25.8228H25.8051H25.7873H25.7696H25.7519H25.7342H25.7165H25.6987H25.681H25.6633H25.6456H25.6279H25.6102H25.5924H25.5747H25.557H25.5393H25.5216H25.5039H25.4861H25.4684H25.4507H25.433H25.4153H25.3976H25.3798H25.3621H25.3444H25.3267H25.309H25.2912H25.2735H25.2558H25.2381H25.2204H25.2027H25.1849H25.1672H25.1495H25.1318H25.1141H25.0964H25.0786H25.0609H25.0432H25.0255H25.0078H24.9901H24.9723H24.9546H24.9369H24.9192H24.9015H24.8837H24.866H24.8483H24.8306H24.8129H24.7952H24.7774H24.7597H24.742H24.7243H24.7066H24.6889H24.6711H24.6534H24.6357H24.618H24.6003H24.5826H24.5648H24.5471H24.5294H24.5117H24.494H24.4762H24.4585H24.4408H24.4231H24.4054H24.3877H24.3699H24.3522H24.3345H24.3168H24.2991H24.2814H24.2636H24.2459H24.2282H24.2105H24.1928H24.1751H24.1573H24.1396H24.1219H24.1042H24.0865H24.0687H24.051H24.0333H24.0156H23.9979H23.9802H23.9624H23.9447H23.927H23.9093H23.8916H23.8739H23.8561H23.8384H23.8207H23.803H23.7853H23.7676H23.7498H23.7321H23.7144H23.6967H23.679H23.6612H23.6435H23.6258H23.6081H23.5904H23.5727H23.5549H23.5372H23.5195H23.5018H23.4841H23.4664H23.4486H23.4309H23.4132H23.3955H23.3778H23.3601H23.3423H23.3246H23.3069H23.2892H23.2715H23.2537H23.236H23.2183H23.2006H23.1829H23.1652H23.1474H23.1297H23.112H23.0943H23.0766H23.0589H23.0411H23.0234H23.0057H22.988H22.9703H22.9526H22.9348H22.9171H22.8994H22.8817H22.864H22.8463H22.8285H22.8108H22.7931H22.7754H22.7577H22.7399H22.7222H22.7045H22.6868H22.6691H22.6514H22.6336H22.6159H22.5982H22.5805H22.5628H22.5451H22.5273H22.5096H22.4919H22.4742H22.4565H22.4388H22.421H22.4033H22.3856H22.3679H22.3502H22.3324H22.3147H22.297H22.2793H22.2616H22.2439H22.2261H22.2084H22.1907H22.173H22.1553H22.1376H22.1198H22.1021H22.0844H22.0667H22.049H22.0313H22.0135H21.9958H21.9781H21.9604H21.9427H21.9249H21.9072H21.8895H21.8718H21.8541H21.8364H21.8186H21.8009H21.7832H21.7655H21.7478H21.7301H21.7123H21.6946H21.6769H21.6592H21.6415H21.6238H21.606H21.5883H21.5706H21.5529H21.5352H21.5174H21.4997H21.482H21.4643H21.4466H21.4289H21.4111H21.3934H21.3757H21.358H21.3403H21.3226H21.3048H21.2871H21.2694H21.2517H21.234H21.2163H21.1985H21.1808H21.1631H21.1454H21.1277H21.1099H21.0922H21.0745H21.0568H21.0391H21.0214H21.0036H20.9859H20.9682H20.9505H20.9328H20.9151H20.8973H20.8796H20.8619H20.8442H20.8265H20.8088H20.791H20.7733H20.7556H20.7379H20.7202H20.7024H20.6847H20.667H20.6493H20.6316H20.6139H20.5961H20.5784H20.5607H20.543H20.5253H20.5076H20.4898H20.4721H20.4544H20.4367H20.419H20.4013H20.3835H20.3658H20.3481H20.3304H20.3127H20.295H20.2772H20.2595H20.2418H20.2241H20.2064H20.1886H20.1709H20.1532H20.1355H20.1178H20.1001H20.0823H20.0646H20.0469H20.0292H20.0115H19.9938H19.976H19.9583H19.9406H19.9229H19.9052H19.8875H19.8697H19.852H19.8343H19.8166H19.7989H19.7811H19.7634H19.7457H19.728H19.7103H19.6926H19.6748H19.6571H19.6394H19.6217H19.604H19.5863H19.5685H19.5508H19.5331H19.5154H19.4977H19.4799H19.4622H19.4445H19.4268H19.4091H19.3914H19.3736H19.3559H19.3382H19.3205H19.3028H19.2851H19.2673H19.2496H19.2319H19.2142H19.1965H19.1788H19.161H19.1433H19.1256H19.1079H19.0902H19.0725H19.0547H19.037H19.0193H19.0016H18.9839H18.9661H18.9484H6.27026C4.33727 18.5356 2.77026 20.1026 2.77026 22.0356C2.77026 23.9686 4.33727 25.5356 6.27026 25.5356H18.9484H18.9661H18.9839H19.0016H19.0193H19.037H19.0547H19.0725H19.0902H19.1079H19.1256H19.1433H19.161H19.1788H19.1965H19.2142H19.2319H19.2496H19.2673H19.2851H19.3028H19.3205H19.3382H19.3559H19.3736H19.3914H19.4091H19.4268H19.4445H19.4622H19.4799H19.4977H19.5154H19.5331H19.5508H19.5685H19.5863H19.604H19.6217H19.6394H19.6571H19.6748H19.6926H19.7103H19.728H19.7457H19.7634H19.7811H19.7989H19.8166H19.8343H19.852H19.8697H19.8875H19.9052H19.9229H19.9406H19.9583H19.976H19.9938H20.0115H20.0292H20.0469H20.0646H20.0823H20.1001H20.1178H20.1355H20.1532H20.1709H20.1886H20.2064H20.2241H20.2418H20.2595H20.2772H20.295H20.3127H20.3304H20.3481H20.3658H20.3835H20.4013H20.419H20.4367H20.4544H20.4721H20.4898H20.5076H20.5253H20.543H20.5607H20.5784H20.5961H20.6139H20.6316H20.6493H20.667H20.6847H20.7024H20.7202H20.7379H20.7556H20.7733H20.791H20.8088H20.8265H20.8442H20.8619H20.8796H20.8973H20.9151H20.9328H20.9505H20.9682H20.9859H21.0036H21.0214H21.0391H21.0568H21.0745H21.0922H21.1099H21.1277H21.1454H21.1631H21.1808H21.1985H21.2163H21.234H21.2517H21.2694H21.2871H21.3048H21.3226H21.3403H21.358H21.3757H21.3934H21.4111H21.4289H21.4466H21.4643H21.482H21.4997H21.5174H21.5352H21.5529H21.5706H21.5883H21.606H21.6238H21.6415H21.6592H21.6769H21.6946H21.7123H21.7301H21.7478H21.7655H21.7832H21.8009H21.8186H21.8364H21.8541H21.8718H21.8895H21.9072H21.9249H21.9427H21.9604H21.9781H21.9958H22.0135H22.0313H22.049H22.0667H22.0844H22.1021H22.1198H22.1376H22.1553H22.173H22.1907H22.2084H22.2261H22.2439H22.2616H22.2793H22.297H22.3147H22.3324H22.3502H22.3679H22.3856H22.4033H22.421H22.4388H22.4565H22.4742H22.4919H22.5096H22.5273H22.5451H22.5628H22.5805H22.5982H22.6159H22.6336H22.6514H22.6691H22.6868H22.7045H22.7222H22.7399H22.7577H22.7754H22.7931H22.8108H22.8285H22.8463H22.864H22.8817H22.8994H22.9171H22.9348H22.9526H22.9703H22.988H23.0057H23.0234H23.0411H23.0589H23.0766H23.0943H23.112H23.1297H23.1474H23.1652H23.1829H23.2006H23.2183H23.236H23.2537H23.2715H23.2892H23.3069H23.3246H23.3423H23.3601H23.3778H23.3955H23.4132H23.4309H23.4486H23.4664H23.4841H23.5018H23.5195H23.5372H23.5549H23.5727H23.5904H23.6081H23.6258H23.6435H23.6612H23.679H23.6967H23.7144H23.7321H23.7498H23.7676H23.7853H23.803H23.8207H23.8384H23.8561H23.8739H23.8916H23.9093H23.927H23.9447H23.9624H23.9802H23.9979H24.0156H24.0333H24.051H24.0687H24.0865H24.1042H24.1219H24.1396H24.1573H24.1751H24.1928H24.2105H24.2282H24.2459H24.2636H24.2814H24.2991H24.3168H24.3345H24.3522H24.3699H24.3877H24.4054H24.4231H24.4408H24.4585H24.4762H24.494H24.5117H24.5294H24.5471H24.5648H24.5826H24.6003H24.618H24.6357H24.6534H24.6711H24.6889H24.7066H24.7243H24.742H24.7597H24.7774H24.7952H24.8129H24.8306H24.8483H24.866H24.8837H24.9015H24.9192H24.9369H24.9546H24.9723H24.9901H25.0078H25.0255H25.0432H25.0609H25.0786H25.0964H25.1141H25.1318H25.1495H25.1672H25.1849H25.2027H25.2204H25.2381H25.2558H25.2735H25.2912H25.309H25.3267H25.3444H25.3621H25.3798H25.3976H25.4153H25.433H25.4507H25.4684H25.4861H25.5039H25.5216H25.5393H25.557H25.5747H25.5924H25.6102H25.6279H25.6456H25.6633H25.681H25.6987H25.7165H25.7342H25.7519H25.7696H25.7873H25.8051H25.8228H25.8405H25.8582H25.8759H25.8936H25.9114H25.9291H25.9468H25.9645H25.9822H25.9999H26.0177H26.0354H26.0531H26.0708H26.0885H26.1062H26.124H26.1417H26.1594H26.1771H26.1948H26.2126H26.2303H26.248H26.2657H26.2834H26.3011H26.3189H26.3366H26.3543H26.372H26.3897H26.4074H26.4252H26.4429H26.4606H26.4783H26.496H26.5137H26.5315H26.5492H26.5669H26.5846H26.6023H26.6201H26.6378H26.6555H26.6732H26.6909H26.7086H26.7264H26.7441H26.7618H26.7795H26.7972H26.8149H26.8327H26.8504H26.8681H26.8858H26.9035H26.9212H26.939H26.9567H26.9744H26.9921H27.0098H27.0275H27.0453H27.063H27.0807H27.0984H27.1161H27.1339H27.1516H27.1693H27.187H27.2047H27.2224H27.2402H27.2579H27.2756H27.2933H27.311H27.3287H27.3465H27.3642H27.3819H27.3996H27.4173H27.435H27.4528H27.4705H27.4882H27.5059H27.5236H27.5414H27.5591H27.5768H27.5945H27.6122H27.6299H27.6477H27.6654H27.6831H27.7008H27.7185H27.7362H27.754H27.7717H27.7894H27.8071H27.8248H27.8425H27.8603H27.878H27.8957H27.9134H27.9311H27.9489H27.9666H27.9843H28.002H28.0197C28.6533 25.5356 29.2574 25.5311 29.8461 25.5267Z" fill="white"/>
<path d="M2.82263 41.9706C2.82263 42.8005 3.4665 43.619 4.0241 44.1766C4.79641 44.9489 5.64495 45.5192 6.00512 46.5997" stroke="white" stroke-linecap="round"/>
<path d="M5.57106 45.4424C5.26027 44.883 4.83092 44.3253 4.42986 43.8351C4.34938 43.7367 4.33163 43.5841 4.23699 43.4895C4.12756 43.3801 3.97673 43.3096 3.8673 43.2002C3.70888 43.0418 3.53505 42.7646 3.47351 42.5492C3.41426 42.3418 3.29502 42.1073 3.22036 41.8983C3.12764 41.6386 3.20683 41.4643 2.85871 41.4643C2.61438 41.4643 2.67789 41.7894 2.67789 41.6089C2.67789 41.3482 2.68934 41.1922 2.80647 40.958C2.85628 40.8584 3.20251 39.7187 3 40C2.8228 40.2461 2.60556 41.1743 2.60556 41.4804C2.60556 41.8488 2.53631 42.2915 2.67789 42.6376C2.87881 43.1288 3.46847 43.6539 3.8673 43.9958C4.36376 44.4213 5.03696 45.2618 5.20941 45.9085C5.29406 46.2259 5.64222 46.4678 5.7117 46.7805C5.77492 47.065 5.67572 47.3315 5.78805 47.6123" stroke="white" stroke-width="0.5" stroke-linecap="round"/>
<path d="M61.4999 45C60.9999 46 60.938 45.9601 61.3036 47.8334C61.4688 48.6798 61 49.4677 61 50" stroke="white" stroke-linecap="round"/>
<path d="M29.5 43.5C29.7456 43.5246 30.6407 44.4697 30.7727 44.6425C31.0067 44.9489 31.2428 45.2668 31.4297 45.6066C31.5733 45.8676 31.5 46.7006 31.5 47" stroke="white" stroke-width="0.5" stroke-linecap="round"/>
<path d="M19 24C17.4694 24 16.5537 26.2643 16.0323 27.325C15.8034 27.7905 15.2063 29.0874 15 29.5C14.5 30.5 14.5 31.4517 14.5 32" stroke="white" stroke-width="0.5" stroke-linecap="round"/>
<path d="M68.7227 22.5C68.7227 23.4682 69.4929 25.3386 69.2874 26.2887C69.1024 27.1444 68.7709 28.1042 68.7227 28.9712C68.6936 29.494 68.5516 29.9836 68.5 30.5C68.4702 30.7984 68.5 30.9814 68.5 31.5C68.5 32 68.1945 32.611 68 33" stroke="white" stroke-width="0.4" stroke-linecap="round"/>
<path d="M19 8C19.0873 8.11678 19.2262 9.50368 19.3006 9.85251C19.4485 10.5468 19.5914 11.3716 19.7322 12.1541C19.8118 12.5964 19.8918 13.1161 19.9659 13.6159C19.9829 13.7304 20 13.8076 20 14" stroke="white" stroke-width="0.5" stroke-linecap="round"/>
<path d="M59.9374 7.97247C59.7187 8.06969 59.7432 8.81572 59.7247 9.01726C59.6923 9.36941 59.7186 9.7169 59.6684 10.0683C59.5933 10.5941 59.67 11.2006 59.4744 11.7012C59.3462 12.0296 59.2587 12.3243 59.0365 12.6021C58.9014 12.7709 58.7637 12.93 58.6424 13.1088C58.4859 13.3394 58.2013 13.6782 58.1356 13.9409" stroke="white" stroke-width="0.5" stroke-linecap="round"/>
<path d="M3 5C3 5.75512 2.19879 7.51222 2.19879 8.25017C2.19879 8.8566 2.09425 9.51594 1.9031 10.0894C1.68804 10.7346 1.58993 11.3781 1.28214 11.9937C1.01892 12.5201 0.859963 12.9191 0.820852 13.5254C0.752774 14.5806 0.674108 15.9282 1.5 16.5" stroke="white" stroke-width="0.3" stroke-linecap="round"/>
</svg>
