<svg width="71" height="48" viewBox="0 0 71 48" fill="none" xmlns="http://www.w3.org/2000/svg">
<path d="M5 6.18118C25.2046 6.32258 44.8978 6.73114 65.033 5.99868" stroke="white" stroke-width="10" stroke-linecap="round"/>
<path d="M5.27136 40.992C5.40791 39.2596 25.5329 40.4604 27.8784 40.4604C34.2844 40.4604 40.6904 40.4604 47.0963 40.4604C53.1909 40.4604 59.2467 42.0551 65.2714 42.0551" stroke="white" stroke-width="10" stroke-linecap="round"/>
<path d="M5.27136 23.0712C9.51653 23.0712 13.7617 23.0712 18.0069 23.0712C21.0443 23.0712 24.0817 23.0712 27.1192 23.0712C28.8578 23.0712 30.5982 23.035 32.3366 23.0712C33.8118 23.102 35.1574 23.9127 36.6119 24.0356C46.1677 24.8431 55.6908 25.0551 65.2714 25.0551" stroke="white" stroke-width="10" stroke-linecap="round"/>
</svg>
