<svg width="64" height="64" viewBox="0 0 64 64" fill="none" xmlns="http://www.w3.org/2000/svg">
<path d="M31.5783 20.8389C31.5783 18.26 28.9065 16.884 26.9688 15.6439C26.1358 15.1108 24.9425 14.651 23.9747 14.4359C23.2919 14.2842 22.7997 13.8025 22.1813 13.5021C20.8501 12.8555 19.4219 12.7018 17.9645 12.7018C17.0413 12.7018 16.2455 12.8156 15.4374 13.3094C14.8403 13.6743 14.4433 14.5617 13.807 14.8064C12.4205 15.3397 11.5677 16.0473 10.5017 17.0371C9.73724 17.747 9.60229 19.0232 9.13813 19.9051C8.59919 20.9291 8.09474 21.5323 7.83382 22.7065C7.68558 23.3735 7.30023 23.8817 7.30023 24.574C7.30023 25.3819 7.40903 26.0064 7.62631 26.7825C7.78139 27.3363 7.83382 27.9263 7.83382 28.5018C7.83382 28.7743 7.95952 29.0245 8.10061 29.2503C8.31156 29.5878 8.15751 29.9222 8.26365 30.2804C8.47853 31.0056 8.61065 31.7715 8.775 32.5111C8.87449 32.9588 9.1937 33.3559 9.30117 33.7858C9.42826 34.2941 9.51815 34.9842 9.96815 35.2753C10.1459 35.3903 10.4608 35.8652 10.6055 36.0461C10.9455 36.471 11.2995 36.7626 11.7023 37.1207C12.0316 37.4133 12.5082 37.8526 12.7695 38.2101C13.1476 38.7275 13.7557 38.9361 14.0738 39.5144C14.396 40.1002 14.9022 40.6985 15.3707 41.167C16.1904 41.9867 17.5137 42.3029 18.3721 43.1161C19.3531 44.0454 20.9516 44.6482 21.6477 45.8507C22.0178 46.49 22.9097 47.0154 23.4412 47.5181C24.1979 48.234 24.9761 48.9197 25.7163 49.6599C26.2715 50.2151 26.6655 50.6786 27.1096 51.3199C27.5331 51.9317 28.2095 52.2613 28.7474 52.7502C29.5025 53.4367 30.5677 53.775 31.4968 54.188C31.6961 54.2765 32.1014 54.4749 32.2453 54.6548C32.4653 54.9298 33.6647 54.6521 33.8905 54.5881C35.5822 54.1088 37.0786 52.5117 38.0406 51.1124C38.4607 50.5014 38.9494 49.7912 39.2486 49.1263C39.636 48.2653 40.6039 47.6792 41.257 47.0438C42.6468 45.6916 43.9833 44.2944 45.3848 42.9753C47.911 40.5977 50.4858 38.4144 52.8624 35.9127C53.0642 35.7003 53.0653 35.3656 53.1885 35.1123C53.4679 34.5379 53.8962 34.0362 54.2557 33.5115C54.8039 32.7114 55.0241 31.9748 55.4562 31.1104C55.7882 30.4465 56.2566 29.593 56.2566 28.8353C56.2566 27.6757 56.2603 26.5866 56.4938 25.4485C56.6899 24.4921 56.6568 23.3408 56.6568 22.3656C56.6568 21.2093 56.5147 20.0062 55.9972 18.9714C55.1155 17.208 53.4487 16.2022 51.6619 15.4364C50.9718 15.1406 50.2749 14.5326 49.6535 14.1024C49.1027 13.7211 48.2052 13.5342 47.5562 13.3984C45.5722 12.9831 43.4752 12.8564 41.4422 12.976C40.3181 13.0421 39.3513 13.86 38.3074 14.2358C37.2823 14.6049 36.1877 15.1379 35.3134 15.7995C34.5622 16.368 34.0612 17.0458 33.5793 17.8375C33.3212 18.2615 32.7789 18.8519 32.7789 19.3716" stroke="white" stroke-width="5" stroke-linecap="round"/>
</svg>
