<svg width="64" height="66" viewBox="0 0 64 66" fill="none" xmlns="http://www.w3.org/2000/svg">
<path fill-rule="evenodd" clip-rule="evenodd" d="M17.9646 9.20175C16.7217 9.20175 15.1931 9.35698 13.6124 10.323C13.0907 10.6417 12.7115 11.011 12.4802 11.255C12.3154 11.4289 12.1477 11.6257 12.0455 11.7469C10.3169 12.5018 9.18333 13.4852 8.12022 14.4723C7.08385 15.4347 6.63038 16.6234 6.41594 17.2165C6.3552 17.3844 6.30022 17.5466 6.25603 17.6775L6.24046 17.7236C6.20058 17.8417 6.17009 17.9321 6.13892 18.0204C6.07484 18.2021 6.04486 18.2666 6.04112 18.2746C6.04086 18.2752 6.04073 18.2755 6.04071 18.2755C6.0407 18.2756 6.04079 18.2754 6.04098 18.275C6.00095 18.3511 5.93801 18.4574 5.85925 18.5905L5.85922 18.5905C5.4854 19.2219 4.75506 20.4556 4.42409 21.9166C4.42128 21.9248 4.41673 21.9376 4.40992 21.9558C4.39625 21.9923 4.37903 22.0361 4.35039 22.1077L4.33823 22.1381C4.31367 22.1993 4.27955 22.2845 4.24718 22.3681C4.09111 22.7716 3.80029 23.5638 3.80029 24.574C3.80029 25.7711 3.97394 26.7188 4.256 27.7262C4.29681 27.8719 4.33388 28.1201 4.33388 28.5018C4.33388 29.2603 4.53243 29.9025 4.73942 30.3724C4.7599 30.6149 4.80486 30.9269 4.90792 31.2747C5.01777 31.6455 5.08416 31.9673 5.17544 32.4098C5.2253 32.6514 5.28257 32.9291 5.35841 33.2703C5.44438 33.6572 5.56537 33.9788 5.66474 34.2118C5.75806 34.4306 5.85629 34.6248 5.90771 34.7264L5.90772 34.7265L5.91179 34.7345L5.92461 34.7599L5.9432 34.7966C5.9522 34.8369 5.9657 34.896 5.99 34.9986C6.03266 35.1788 6.10188 35.4565 6.2073 35.7601C6.36659 36.2188 6.73392 37.1187 7.58951 37.8564L7.64811 37.9361C7.67366 37.9709 7.70706 38.0164 7.74026 38.0609C7.77186 38.1031 7.81908 38.1657 7.87251 38.2325C8.37437 38.8598 8.92839 39.344 9.25319 39.6278L9.25337 39.6279C9.29951 39.6682 9.34102 39.7045 9.37709 39.7366C9.5233 39.8666 9.67119 40.0017 9.79886 40.1281C9.86159 40.1903 9.90798 40.239 9.93934 40.2738C9.94864 40.2841 9.95517 40.2916 9.95923 40.2963C10.2467 40.6856 10.5455 40.9755 10.7757 41.1781C10.9263 41.3107 11.0933 41.4436 11.1936 41.5223C11.7159 42.3775 12.3739 43.1199 12.8959 43.6419C13.7001 44.4461 14.6645 44.9483 15.1526 45.2025L15.1527 45.2025L15.233 45.2444C15.5287 45.3993 15.6937 45.4865 15.8364 45.5734C15.9261 45.6279 15.9647 45.6578 15.9723 45.6637C16.4089 46.0763 16.8612 46.405 17.2129 46.6476C17.3933 46.772 17.5727 46.8909 17.7238 46.9909L17.7347 46.9982C17.8896 47.1007 18.0168 47.1849 18.1394 47.2689C18.4743 47.4982 18.6075 47.6196 18.6447 47.6535C18.6473 47.6559 18.6494 47.6578 18.6511 47.6593C19.1797 48.5459 19.9183 49.1592 20.2702 49.4466C20.4112 49.5617 20.5819 49.6955 20.705 49.792C20.7496 49.827 20.7879 49.857 20.8163 49.8795C20.8863 49.935 20.9374 49.9763 20.9774 50.0099C20.9888 50.0194 20.9984 50.0276 21.0065 50.0346C21.0121 50.0395 21.017 50.0437 21.0212 50.0474L21.0324 50.0575L21.0349 50.0597L21.036 50.0608L21.036 50.0608C21.3801 50.3863 21.6821 50.6644 21.964 50.924C22.4109 51.3356 22.8075 51.7007 23.2415 52.1348C23.6623 52.5556 23.9183 52.8591 24.2319 53.3122C24.7646 54.0816 25.3968 54.5855 25.767 54.8671C25.8532 54.9326 26.0705 55.093 26.1718 55.1678L26.2246 55.2068C26.336 55.2904 26.3782 55.3265 26.3931 55.34C27.1494 56.0276 27.9684 56.46 28.5797 56.7446C28.8915 56.8899 29.1956 57.017 29.4405 57.1186L29.5467 57.1626C29.734 57.2402 29.8816 57.3013 30.0214 57.3625C30.4797 57.7469 30.9414 57.9438 31.2357 58.0446C31.6639 58.1913 32.0445 58.2393 32.2871 58.2585C32.7718 58.2969 33.2138 58.2562 33.4864 58.2232C34.0532 58.1546 34.5897 58.0278 34.8447 57.9556C37.7643 57.1284 39.8548 54.6517 40.9248 53.0953L40.9828 53.0111C41.3444 52.486 41.9383 51.6238 42.3664 50.7226C42.3935 50.6954 42.4335 50.6568 42.4898 50.6064C42.5946 50.5124 42.6998 50.4245 42.8558 50.2944L42.9676 50.201C43.1581 50.0417 43.431 49.8119 43.6978 49.5524C44.3515 48.9163 44.9297 48.3363 45.4859 47.7783C46.2473 47.0146 46.9674 46.2922 47.7837 45.524C48.5122 44.8383 49.2857 44.1336 50.0798 43.4102C51.8419 41.8048 53.7049 40.1076 55.4 38.3233C56.1066 37.5794 56.3451 36.7506 56.415 36.5079L56.418 36.4973L56.4194 36.4925C56.4517 36.4428 56.4883 36.395 56.5433 36.3232C56.6468 36.188 56.8155 35.9678 57.143 35.4899C57.5823 34.8486 57.8717 34.2562 58.0879 33.7787C58.1841 33.5663 58.2536 33.4071 58.313 33.2709L58.3131 33.2708C58.4076 33.0542 58.4766 32.8961 58.5868 32.6757C58.6045 32.6403 58.6261 32.5978 58.6507 32.5492C58.7914 32.2719 59.0324 31.7968 59.2244 31.3233C59.4479 30.7723 59.7567 29.8781 59.7567 28.8353C59.7567 27.6378 59.7707 26.8916 59.9224 26.1518C60.1748 24.9214 60.1646 23.5195 60.1585 22.6781V22.678C60.1576 22.5627 60.1569 22.4579 60.1569 22.3656C60.1569 20.9851 59.9991 19.1488 59.1278 17.4061C57.6711 14.4927 55.0213 13.0682 53.0406 12.2194C53.0435 12.2206 53.0431 12.2204 53.039 12.2181C53.019 12.2071 52.9124 12.1484 52.6731 11.9766C52.556 11.8925 52.4405 11.8062 52.2959 11.6981L52.227 11.6466C52.0642 11.5251 51.8587 11.3721 51.6458 11.2247C50.9186 10.7213 50.1413 10.4528 49.6398 10.3036C49.1263 10.1509 48.6204 10.0452 48.3122 9.98074L48.2733 9.97261C45.9547 9.48732 43.5452 9.34621 41.2368 9.48199C39.9192 9.5595 38.8579 10.0662 38.2631 10.3675C37.9259 10.5384 37.7151 10.6511 37.5656 10.731C37.3577 10.8422 37.2683 10.89 37.122 10.9427C35.8734 11.3922 34.4369 12.0736 33.2014 13.0086C32.5621 13.4924 32.048 14.0152 31.6203 14.5382C30.802 13.9054 29.9288 13.3639 29.3043 12.9767C29.1342 12.8713 28.9825 12.7772 28.8555 12.6959C27.6773 11.9419 26.1771 11.3633 24.9166 11.0614L24.8966 11.0491C24.8517 11.0213 24.8023 10.9898 24.7299 10.9433L24.7139 10.9331L24.7139 10.9331C24.6501 10.8921 24.5663 10.8384 24.4801 10.7845C24.2913 10.6667 24.0256 10.5069 23.7105 10.3538C21.6826 9.36884 19.6354 9.20175 17.9646 9.20175ZM11.3517 41.65C11.3515 41.65 11.3467 41.6459 11.3383 41.638C11.3478 41.6462 11.352 41.6501 11.3517 41.65ZM31.5784 24.3389C33.0139 24.3389 34.2475 23.4748 34.7874 22.2383C35.457 21.7683 35.9544 21.0697 36.1663 20.2558L36.2021 20.2051L36.2059 20.1998C36.2466 20.1423 36.303 20.0626 36.3589 19.981C36.4169 19.8963 36.4918 19.7842 36.569 19.6573C36.9501 19.0312 37.1792 18.7768 37.4255 18.5904C37.9386 18.2022 38.6913 17.8175 39.493 17.5289C39.9605 17.3606 40.3698 17.1612 40.6747 17.0051C40.8159 16.9328 40.9548 16.8592 41.0698 16.7983L41.0701 16.7982L41.0993 16.7827C41.2282 16.7145 41.3299 16.6609 41.4265 16.612C41.5991 16.5245 41.7 16.4825 41.7464 16.4643C43.4721 16.3708 45.2206 16.4854 46.8393 16.8241C47.1849 16.8965 47.4307 16.9497 47.6438 17.013C47.6964 17.0287 47.7358 17.0418 47.7637 17.0517C47.8756 17.1311 47.9463 17.185 48.0337 17.2516C48.1479 17.3386 48.2905 17.4474 48.5909 17.6631C48.9786 17.9414 49.5764 18.3505 50.2832 18.6534C51.8763 19.3362 52.5601 19.9232 52.8668 20.5366C53.0303 20.8636 53.1569 21.4336 53.1569 22.3656C53.1569 22.4358 53.1569 22.5042 53.157 22.5709C53.157 22.6258 53.1571 22.6795 53.1572 22.7321C53.1584 23.695 53.1592 24.2869 53.0652 24.7452C52.7677 26.1956 52.7569 27.553 52.7567 28.644C52.7513 28.6581 52.745 28.6743 52.7375 28.6927C52.7008 28.7833 52.6498 28.8955 52.5774 29.0435C52.5268 29.1469 52.4862 29.227 52.4383 29.3217L52.4381 29.3221C52.4058 29.386 52.3702 29.4565 52.3258 29.5452C52.1354 29.926 51.943 30.3645 51.8145 30.6577C51.7724 30.7535 51.7372 30.8338 51.7111 30.8914C51.5721 31.1984 51.4773 31.3744 51.3685 31.5332C51.3595 31.5464 51.3361 31.5778 51.3015 31.6243C51.0823 31.9192 50.4095 32.8242 50.0412 33.5812C49.9715 33.7246 49.917 33.8568 49.8747 33.9699C48.498 35.3818 47.0983 36.6557 45.6056 38.0143L45.6055 38.0143C44.766 38.7784 43.897 39.5693 42.9861 40.4266C42.139 41.2238 41.2335 42.1299 40.3767 42.9872L40.3767 42.9872C39.827 43.5373 39.2974 44.0672 38.8163 44.5353C38.7565 44.5935 38.6636 44.6752 38.4768 44.8314L38.3996 44.8958C38.2427 45.0265 38.0239 45.2088 37.8167 45.3946C37.3467 45.816 36.5585 46.5756 36.0569 47.69C35.9123 48.0115 35.6237 48.4501 35.1565 49.1296C34.4373 50.1757 33.6839 50.8497 33.187 51.1149C33.0821 51.0637 32.99 51.0215 32.9184 50.9896C32.6733 50.8807 32.4201 50.7759 32.2146 50.6909L32.1225 50.6527C31.8828 50.5533 31.6991 50.4755 31.5342 50.3987C31.2002 50.2432 31.1052 50.1633 31.1019 50.1605L31.1018 50.1604C30.8477 49.9295 30.6037 49.7411 30.4238 49.6062C30.3461 49.548 30.2676 49.4903 30.205 49.4442L30.1782 49.4246C30.1057 49.3712 30.0523 49.3317 30.0043 49.2952C29.9656 49.2658 29.937 49.243 29.9166 49.2264C29.3689 48.4466 28.8524 47.8462 28.1912 47.185C27.672 46.6658 27.0734 46.1131 26.5473 45.6273L26.5472 45.6272L26.5471 45.6271C26.2904 45.3901 26.051 45.169 25.8464 44.9755C25.5953 44.738 25.3384 44.5315 25.1614 44.3913C25.0751 44.323 25.0075 44.2701 24.9486 44.224L24.9482 44.2236C24.8561 44.1516 24.7853 44.0962 24.6978 44.0247C24.6384 43.9762 24.5958 43.9398 24.5661 43.9135C23.7971 42.6865 22.7145 41.9178 22.0942 41.4931C21.772 41.2724 21.5398 41.1189 21.3641 41.0026L21.3639 41.0025C21.0553 40.7984 20.9211 40.7096 20.7793 40.5752C19.9895 39.827 19.0571 39.3429 18.5791 39.0946L18.4809 39.0435C18.0312 38.808 17.8835 38.7133 17.8477 38.6903C17.8411 38.6861 17.8383 38.6843 17.8381 38.6845C17.8379 38.6847 17.841 38.6875 17.8456 38.6921C17.495 38.3415 17.2405 38.0093 17.1406 37.8277C16.6264 36.8927 15.9135 36.3297 15.6356 36.1102L15.6157 36.0945C15.5675 36.0564 15.5409 36.0355 15.5195 36.0187L15.4699 35.9797C14.9645 35.3375 14.2999 34.7467 14.0334 34.5099L14.0334 34.5098L14.0276 34.5047C13.9709 34.4543 13.9161 34.406 13.867 34.3627L13.8512 34.3488C13.8071 34.31 13.7684 34.2759 13.7303 34.2421C13.6455 34.167 13.583 34.1104 13.5298 34.0603C13.4382 33.9741 13.3867 33.9184 13.3483 33.8717C13.3434 33.8649 13.3269 33.8428 13.2917 33.7949L13.2805 33.7796L13.2805 33.7796C13.2326 33.7143 13.158 33.6126 13.0798 33.5103C12.9984 33.4039 12.8762 33.2479 12.7332 33.0878C12.7222 33.0408 12.7099 32.9895 12.6967 32.9369C12.6036 32.5644 12.4797 32.2573 12.3852 32.0449C12.3039 31.8623 12.2156 31.6882 12.1708 31.5998L12.1585 31.5757L12.1503 31.5593C12.1335 31.4799 12.1155 31.3929 12.0962 31.2998L12.0958 31.298C11.9999 30.8348 11.8729 30.2219 11.7204 29.6469C11.7145 29.3099 11.6734 28.6193 11.3168 27.8526C11.2832 27.2323 11.1941 26.5436 10.9967 25.8388C10.875 25.404 10.8225 25.1243 10.8062 24.8162L10.8316 24.7528L10.8494 24.7082C10.8804 24.6307 10.9227 24.5246 10.966 24.4089C11.0535 24.1751 11.1649 23.8511 11.2505 23.4657C11.2961 23.2607 11.3537 23.1155 11.4726 22.8916C11.5455 22.7545 11.6265 22.615 11.758 22.3887L11.7701 22.3678C11.8986 22.1466 12.0636 21.8618 12.2354 21.5353C12.4709 21.0878 12.633 20.6531 12.7402 20.3491C12.7885 20.2124 12.8352 20.0739 12.8732 19.9613L12.8732 19.9611L12.8881 19.9171C12.9319 19.7874 12.9659 19.6878 12.9988 19.5968C13.0222 19.5321 13.0417 19.4812 13.058 19.4408C13.9099 18.6606 14.3567 18.345 15.0635 18.0732C15.7634 17.804 16.2721 17.4082 16.5969 17.1137C16.9152 16.8253 17.169 16.5283 17.3034 16.3702L17.4159 16.2375C17.4996 16.2209 17.6566 16.2018 17.9646 16.2018C19.2081 16.2018 20.0171 16.3421 20.6515 16.65C20.6517 16.6502 20.652 16.6503 20.6522 16.6504L20.6517 16.6502C20.6549 16.6518 20.6871 16.6687 20.7728 16.7222C20.8215 16.7527 20.8716 16.7848 20.9448 16.8317L20.9511 16.8358C21.0208 16.8804 21.1133 16.9397 21.2112 17.0004C21.5902 17.2351 22.2879 17.6464 23.2156 17.8526C23.855 17.9947 24.6517 18.3164 25.0821 18.5918C25.3635 18.7719 25.5835 18.9085 25.7878 19.0354L25.7878 19.0355C26.0475 19.1967 26.2818 19.3422 26.5843 19.5411C27.0421 19.8419 27.3906 20.0988 27.6554 20.3377C27.9189 20.5756 28.0254 20.7302 28.0631 20.7989C28.0808 20.8312 28.0799 20.8337 28.0789 20.8365C28.0786 20.8371 28.0784 20.8378 28.0784 20.8389C28.0784 22.7719 29.6454 24.3389 31.5784 24.3389ZM32.6137 51.2771C32.6136 51.277 32.619 51.2764 32.6295 51.2758C32.6189 51.2769 32.6137 51.2772 32.6137 51.2771ZM24.5101 43.8615C24.5064 43.8577 24.5071 43.8581 24.5115 43.8628L24.5101 43.8615ZM10.7487 24.9681C10.7485 24.9688 10.7484 24.9691 10.7484 24.9691L10.7496 24.9651C10.7492 24.9665 10.7489 24.9675 10.7487 24.9681ZM17.5604 16.0708C17.5682 16.0625 17.5673 16.0641 17.5581 16.0732L17.5604 16.0708Z" fill="white"/>
<path d="M6 34C6 34.4356 5.91631 34.8473 5.86667 35.2749C5.71502 36.5811 5.5499 37.9021 5.43704 39.2155C5.27247 41.1308 5 43.0685 5 45" stroke="white" stroke-width="1.2" stroke-linecap="round"/>
<path d="M50.24 43.5707C49.938 46.8936 50.0322 50.3074 50.0322 53.6491" stroke="white" stroke-width="0.75" stroke-linecap="round"/>
<path d="M32.8301 57.6631C32.3232 57.8532 32.623 61.2921 32.4999 62C32.4314 62.3943 32 64.5 32.1459 64.9435" stroke="white" stroke-width="0.5" stroke-linecap="round"/>
</svg>
