<svg width="374" height="127" viewBox="0 0 374 127" fill="none" xmlns="http://www.w3.org/2000/svg">
<path d="M184.354 68.0574C174.884 68.7465 165.114 72.9584 156.142 75.8363C140.298 80.9179 124.845 86.8415 109.667 93.6709C97.4041 99.1886 85.6542 105.219 74.1812 112.233C73.0393 112.931 67.1099 115.946 67.6005 116.439" stroke="black" stroke-width="20" stroke-linecap="round"/>
<path d="M184.354 68.0574C179.339 67.218 174.157 61.5531 169.87 59.1084C152.233 49.0514 133.804 39.7163 114.957 32.1984C90.1769 22.3143 64.4506 13.9843 37.562 13.9843" stroke="black" stroke-width="20" stroke-linecap="round"/>
<path d="M65.9002 116.439C62.7914 116.439 59.6128 116.64 56.5171 116.375C52.8208 116.059 49.3381 114.272 45.7801 113.308C41.9973 112.283 38.2866 110.946 34.7282 109.292C29.0811 106.666 23.5209 102.531 20.2443 97.086C15.0907 88.5227 15.123 77.718 13.1912 68.1839C12.0647 62.624 8.177 53.5263 11.0186 48.1041C14.774 40.9383 20.1916 34.2169 24.5265 27.3603C28.0294 21.8196 32.5943 15.225 39.2623 13.4151C45.6885 11.6709 52.5095 12.2768 59.099 12.2768" stroke="black" stroke-width="20" stroke-linecap="round"/>
<path d="M212.692 68.0574C215.785 63.9155 220.671 61.0647 224.877 58.2231C236.769 50.1889 248.583 41.9044 260.741 34.2855C271.903 27.2905 283.72 21.1162 296.132 16.6722C299.68 15.402 304.964 15.0634 307.908 12.846" stroke="black" stroke-width="20" stroke-linecap="round"/>
<path d="M209.858 74.3185C219.45 74.6506 229.404 79.3919 238.637 81.7179C257.535 86.4786 275.955 92.8942 295.093 96.7382C306.581 99.0457 318.323 101.034 329.949 102.493C335.93 103.244 342.102 105.055 348.148 105.055" stroke="black" stroke-width="20" stroke-linecap="round"/>
<path d="M345.315 107.331C348.616 106.821 351.521 103.419 353.564 101.07C359.104 94.7004 361.247 87.0205 362.255 78.7771C363.214 70.935 363.672 62.3776 360.932 54.8395C358.207 47.3418 354.157 40.156 349.03 34.0641C337.672 20.5686 321.947 10 303.941 10" stroke="black" stroke-width="20" stroke-linecap="round"/>
<path d="M89.148 29.4018C82.5912 29.4018 73.5739 41.3651 71.2588 46.9093C68.9834 52.3585 68.5059 60.5144 67.973 66.3417C67.5453 71.019 67.1516 76.6996 67.973 81.3743C69.0253 87.3628 71.3709 93.5449 72.9017 99.5234C73.3307 101.199 76.7366 111.253 77.6478 109.423" stroke="black" stroke-width="20" stroke-linecap="round"/>
<path d="M279.723 27.7518C285.554 27.7518 288.703 39.8648 290.402 44.251C293.35 51.8643 294.509 61.6075 294.509 69.779C294.509 76.9439 294.509 84.1088 294.509 91.2738" stroke="black" stroke-width="20" stroke-linecap="round"/>
</svg>
