<svg width="406" height="348" viewBox="0 0 406 348" fill="none" xmlns="http://www.w3.org/2000/svg">
<rect width="406" height="348" fill="white"/>
<path d="M193.354 181.057C183.884 181.746 174.114 185.958 165.142 188.836C149.298 193.918 133.845 199.841 118.667 206.671C106.404 212.189 94.6542 218.219 83.1812 225.233C82.0393 225.931 76.1099 228.946 76.6005 229.439" stroke="black" stroke-width="20" stroke-linecap="round"/>
<path d="M193.354 181.057C188.339 180.218 183.157 174.553 178.87 172.108C161.233 162.051 142.804 152.716 123.957 145.198C99.1769 135.314 73.4506 126.984 46.562 126.984" stroke="black" stroke-width="20" stroke-linecap="round"/>
<path d="M74.9002 229.439C71.7914 229.439 68.6128 229.64 65.5171 229.375C61.8208 229.059 58.3381 227.272 54.7801 226.308C50.9973 225.283 47.2866 223.946 43.7282 222.292C38.0811 219.666 32.5209 215.531 29.2443 210.086C24.0907 201.523 24.123 190.718 22.1912 181.184C21.0647 175.624 17.177 166.526 20.0186 161.104C23.774 153.938 29.1916 147.217 33.5265 140.36C37.0294 134.82 41.5943 128.225 48.2623 126.415C54.6885 124.671 61.5095 125.277 68.099 125.277" stroke="black" stroke-width="20" stroke-linecap="round"/>
<path d="M221.692 181.057C224.785 176.916 229.671 174.065 233.877 171.223C245.769 163.189 257.583 154.904 269.741 147.285C280.903 140.291 292.72 134.116 305.132 129.672C308.68 128.402 313.964 128.063 316.908 125.846" stroke="black" stroke-width="20" stroke-linecap="round"/>
<path d="M218.858 187.318C228.45 187.651 238.404 192.392 247.637 194.718C266.535 199.479 284.955 205.894 304.093 209.738C315.581 212.046 327.323 214.034 338.949 215.493C344.93 216.244 351.102 218.055 357.148 218.055" stroke="black" stroke-width="20" stroke-linecap="round"/>
<path d="M354.315 220.331C357.616 219.821 360.521 216.419 362.564 214.07C368.104 207.7 370.247 200.02 371.255 191.777C372.214 183.935 372.672 175.378 369.932 167.84C367.207 160.342 363.157 153.156 358.03 147.064C346.672 133.569 330.947 123 312.941 123" stroke="black" stroke-width="20" stroke-linecap="round"/>
<path d="M98.148 142.402C91.5912 142.402 82.5739 154.365 80.2588 159.909C77.9834 165.359 77.5059 173.514 76.973 179.342C76.5453 184.019 76.1516 189.7 76.973 194.374C78.0253 200.363 80.3709 206.545 81.9017 212.523C82.3307 214.199 85.7366 224.253 86.6478 222.423" stroke="black" stroke-width="20" stroke-linecap="round"/>
<path d="M288.723 140.752C294.554 140.752 297.703 152.865 299.402 157.251C302.35 164.864 303.509 174.608 303.509 182.779C303.509 189.944 303.509 197.109 303.509 204.274" stroke="black" stroke-width="20" stroke-linecap="round"/>
</svg>
